<svg id="圖層_1" data-name="圖層 1" xmlns="http://www.w3.org/2000/svg" viewBox="0 0 222 516.34"><defs><style>.cls-1{fill:#942323;stroke-width:0.75px;}.cls-1,.cls-3{stroke:#942323;}.cls-1,.cls-2,.cls-3{stroke-miterlimit:10;}.cls-2,.cls-3{fill:none;}.cls-2{stroke:#1e556d;stroke-width:3px;}.cls-3{stroke-linecap:round;stroke-width:2px;}</style></defs><title>網站</title><path class="cls-1" d="M114.22,138.88a40.5,40.5,0,0,1-5.4,9.38l-1.12-1.05A34.32,34.32,0,0,0,113,138Zm-.59-3.94-.92,1.18a23.17,23.17,0,0,0-5-3.81l.9-1.23A28.69,28.69,0,0,1,113.63,134.94Zm.59-7.31-.86,1.18a28.2,28.2,0,0,0-4.94-4l1-1.15A26,26,0,0,1,114.22,127.63Zm18,5.48h-8.29v4.77h6.44v10.35h-1.45v-2H117.5v2h-1.45V137.88h6.44v-4.77h-8.35v-1.37h8.35V126.9a63,63,0,0,1-7,.33l-.62-1.39a49.29,49.29,0,0,0,15.18-2l.78,1.26a35.91,35.91,0,0,1-7,1.53v5.07h8.29Zm-3.29,11.74V139.3H117.5v5.55Z"/><path class="cls-1" d="M121.22,160a34.32,34.32,0,0,1-5.65,1v2.19h5.56v1.34h-5.56v2.05h5.11v8.15h-5.11v2h5.11v1.33h-5.11v2.82q2.45-.21,5.11-.64v1.38q-7.53,1-12.73,1.53l-.34-1.42q3.06-.23,6.58-.64v-3H109v-1.33h5.18v-2h-5.14V166.6h5.14v-2.05h-6.12v-1.34h6.13v-2q-2.32.19-5.18.19l-.46-1.29a46.52,46.52,0,0,0,11.92-1.31Zm-7,9.94V168h-3.72v1.94Zm0,3.47v-2.13h-3.72v2.13Zm5.1-3.47V168h-3.72v1.94Zm0,3.47v-2.13h-3.72v2.13Zm11.59-9.08q0,6.19-.2,11.25a36.8,36.8,0,0,1-.48,5.91,2.37,2.37,0,0,1-1,1.32,5.73,5.73,0,0,1-2.77.46c-.37,0-.71,0-1,0l-.48-1.45q1.56.05,2.71.05a1.36,1.36,0,0,0,1-.4,1.82,1.82,0,0,0,.48-1.26l.26-5.39q.19-4.52.19-9.06h-2.94q-.11,10.32-4.27,17.71l-1.26-.62q4-6.77,4.14-17.09l-3,0v-1.39l3,0,.1-5.48h1.39q-.05,3.42-.14,5.48Z"/><path class="cls-1" d="M113.47,194l-1.31,4.51v19.78h-1.46v-16a33.7,33.7,0,0,1-2.41,4.57l-.86-1.44a42.17,42.17,0,0,0,4.65-11.79Zm10.72,20.86a83.54,83.54,0,0,1-10.61,2.94l-.3-1.46a31,31,0,0,0,4.65-1v-5.93h-4V208h4v-4l-3.81.62-.27-1.31a35.86,35.86,0,0,0,4.12-7.21h-3.61v-1.34h9.54v1.34h-4.31a58,58,0,0,1-3.65,6.81q1.23-.15,5.44-1a16.84,16.84,0,0,0-1.41-2.54l1.26-.59a25.86,25.86,0,0,1,2.88,5.8l-1.26.64a12.79,12.79,0,0,0-.86-2.06l-2.61.55V208h3.87v1.37h-3.87v5.52q2.52-.68,4.7-1.49Zm7.1,1.18a2.08,2.08,0,0,1-.7,1.83,6.89,6.89,0,0,1-3.27.48q-1.07,0-2.28-.08l-.51-1.53q2.17.16,3.58.16a3.47,3.47,0,0,0,1.49-.18.8.8,0,0,0,.25-.68V193.88h1.44ZM127,212.61h-1.45V195.78H127Z"/><path class="cls-1" d="M122.73,234.57h-1.9v3.2H116v1.65h4.85v4.29h-4.92a23,23,0,0,1-1.44,2.09h3.42a4.49,4.49,0,0,0,.41-1l1.39.34a2.49,2.49,0,0,1-.19.66h3V247h-3.54a9.53,9.53,0,0,1-2.54,3.14q2.39,1.08,4,2l-.92,1a40.15,40.15,0,0,0-4.39-2.12,16.57,16.57,0,0,1-6.66,2.12l-.52-1.33a17.55,17.55,0,0,0,5.55-1.46,39.68,39.68,0,0,0-3.73-1.38q.74-.78,1.8-2H107.7V245.8h4.95q.86-1.09,1.52-2.09h-4.48v-4.29h4.92v-1.65h-4.92v-3.2h-2v-1.3h2v-3h4.92V228.8H116v1.52h4.84v3h1.9Zm-8.12-1.3v-1.74h-3.53v1.74Zm0,3.23v-1.93h-3.53v1.93Zm0,5.95v-1.75h-3.51v1.75Zm2.63,4.61h-3.77q-.31.41-1.23,1.49,1.2.37,2.67,1A7.31,7.31,0,0,0,117.23,247Zm2.21-13.78v-1.74H116v1.74Zm0,3.23v-1.93H116v1.93Zm0,5.95v-1.75H116v1.75Zm12.63-7.79h-1.29q-.29,8.76-3,13.54a15.93,15.93,0,0,0,4.18,4l-.82,1.15a14.71,14.71,0,0,1-4.31-4,21.8,21.8,0,0,1-4.8,4l-.85-1.15a21.1,21.1,0,0,0,4.81-4,22.32,22.32,0,0,1-2.34-7.85l1.31-.45a23.54,23.54,0,0,0,2,6.95,17.45,17.45,0,0,0,1.86-5.76,55.61,55.61,0,0,0,.57-6.4h-3.81a21.36,21.36,0,0,1-3,5.52l-1.11-.82q2.69-3.5,4.31-10.66l1.35.25a33.48,33.48,0,0,1-1.08,4.33h6Z"/><path class="cls-2" d="M103.37,147.15A20.06,20.06,0,1,1,127.15,118"/><line class="cls-3" x1="119.89" y1="265.32" x2="119.89" y2="309.32"/></svg>