<svg id="圖層_1" data-name="圖層 1" xmlns="http://www.w3.org/2000/svg" viewBox="0 0 390.53 253.18"><defs><style>.cls-1{fill:#dad6b2;}</style></defs><title>插插</title><path class="cls-1" d="M215.68,135.58l11.92-11.92a3.39,3.39,0,0,0,0-4.8L226,117.3a3.39,3.39,0,0,0-4.8,0l-11.92,11.92L197.39,117.3a3.39,3.39,0,0,0-4.8,0L191,118.86a3.39,3.39,0,0,0,0,4.8l11.92,11.92L191,147.5a3.39,3.39,0,0,0,0,4.8l1.56,1.56a3.39,3.39,0,0,0,4.8,0l11.92-11.92,11.92,11.92a3.39,3.39,0,0,0,4.8,0l1.56-1.56a3.39,3.39,0,0,0,0-4.8Z"/></svg>