<svg width="270" height="274" xmlns="http://www.w3.org/2000/svg">
 <defs>
  <style>.cls-1{fill:#efefef;}.cls-2{fill:#d0cbac;stroke:#fff;stroke-miterlimit:10;}</style>
 </defs>
 <title>工作區域 1</title>
 <g>
  <title>background</title>
  <rect fill="none" id="canvas_background" height="276" width="272" y="-1" x="-1"/>
 </g>
 <g>
  <title>Layer 1</title>
  <g id="新圖">
   <circle id="svg_1" transform="rotate(-0.9700000286102295 -813.9270019531208,-366.47695922851744) " r="133.75" cy="156.002992" cx="126.993041" class="cls-1"/>
   <path id="svg_2" d="m26.77304,126.742993a11,11 0 0 0 11.21,11.36l71.46,-0.89a10.14,10.14 0 0 0 8.59,-15.31l-37.15,-62.56c-3.3,-5.55 -11.36,-5.5 -15.6,-2.26s-36.69,20.46 -38.51,69.66z" class="cls-2"/>
   <path id="svg_3" d="m242.88304,156.722993a11,11 0 0 0 -11.21,-11.36l-71.46,0.89a10.14,10.14 0 0 0 -8.59,15.29l37.15,62.58c3.3,5.55 11.36,5.5 15.6,2.26s36.71,-20.44 38.51,-69.66z" class="cls-2"/>
   <path id="svg_4" d="m94.11304,39.082993a11,11 0 0 0 -4.28,15.38l36.32,61.55a10.14,10.14 0 0 0 17.55,-0.17l35.78,-63.36c3.17,-5.62 -0.88,-12.6 -5.8,-14.66s-35.97,-21.66 -79.57,1.26z" class="cls-2"/>
   <path id="svg_5" d="m176.46304,245.062993a11,11 0 0 0 4.31,-15.38l-36.32,-61.55a10.14,10.14 0 0 0 -17.55,0.17l-35.78,63.36c-3.17,5.62 0.88,12.6 5.8,14.66s35.95,21.66 79.54,-1.26z" class="cls-2"/>
   <path id="svg_6" d="m68.77304,228.432993a11,11 0 0 0 15.45,-4l35.05,-62.28a10.14,10.14 0 0 0 -8.94,-15.11l-72.76,0.8c-6.45,0.07 -10.46,7.07 -9.78,12.37s-0.74,41.99 40.98,68.22z" class="cls-2"/>
   <path id="svg_7" d="m201.53304,55.822993a11,11 0 0 0 -15.45,4l-35.05,62.28a10.14,10.14 0 0 0 8.94,15.11l72.76,-0.8c6.45,-0.07 10.46,-7.07 9.78,-12.37s0.71,-41.98 -40.98,-68.22z" class="cls-2"/>
  </g>
 </g>
</svg>