<svg width="807" height="807" xmlns="http://www.w3.org/2000/svg">
 <defs>
  <style>.cls-1,.cls-4{fill:none;stroke:#8a2a29;stroke-miterlimit:10;}.cls-1{stroke-width:37px;}.cls-2{fill:#305971;}.cls-3{fill:#fff;}.cls-4{stroke-width:6px;stroke-dasharray:20 15;}</style>
 </defs>
 <title>工作區域 1</title>
 <g>
  <title>background</title>
  <rect fill="none" id="canvas_background" height="809" width="809" y="-1" x="-1"/>
 </g>
 <g>
  <title>Layer 1</title>
  <g id="新圖">
   <circle id="svg_1" r="384.730011" cy="403.481678" cx="402.92674" class="cls-1"/>
   <path id="svg_2" d="m402.33674,352.211678l0,0a50.61,50.61 0 0 0 -15.64,2.48l0,0a50.61,50.61 0 0 0 -14.11,7.19l0,0a50.61,50.61 0 0 0 -11.2,11.2l0,0a50.61,50.61 0 0 0 -7.19,14.11l0,0a50.61,50.61 0 0 0 -2.48,15.64l0,0a50.61,50.61 0 0 0 2.48,15.64l0,0a50.61,50.61 0 0 0 7.19,14.11l0,0a50.61,50.61 0 0 0 11.2,11.2l0,0a50.61,50.61 0 0 0 14.11,7.22l0,0a50.61,50.61 0 0 0 15.64,2.48l0,0a50.61,50.61 0 0 0 15.67,-2.48l0,0a50.61,50.61 0 0 0 14.11,-7.19l0,0a50.61,50.61 0 0 0 11.2,-11.2l0,0a50.61,50.61 0 0 0 7.19,-14.11l0,0a50.61,50.61 0 0 0 2.48,-15.64l0,0a50.61,50.61 0 0 0 -2.48,-15.64l0,0a50.61,50.61 0 0 0 -7.19,-14.11l0,0a50.61,50.61 0 0 0 -11.2,-11.2l0,0a50.61,50.61 0 0 0 -14.11,-7.23l0,0a50.61,50.61 0 0 0 -15.67,-2.47z" class="cls-2"/>
   <circle id="svg_3" r="8.67" cy="375.711678" cx="402.41674" class="cls-3"/>
   <circle id="svg_4" r="8.67" cy="431.711678" cx="402.41674" class="cls-3"/>
   <circle id="svg_5" r="8.67" cy="418.371678" cx="377.75674" class="cls-3"/>
   <circle id="svg_6" r="8.67" cy="392.711678" cx="378.08674" class="cls-3"/>
   <circle id="svg_7" r="8.67" cy="418.371678" cx="426.75674" class="cls-3"/>
   <circle id="svg_8" r="8.67" cy="392.711678" cx="427.08674" class="cls-3"/>
   <ellipse id="svg_9" ry="347.72" rx="345.24" cy="405.971678" cx="405.41674" class="cls-4"/>
  </g>
 </g>
</svg>