<svg id="圖層_1" data-name="圖層 1" xmlns="http://www.w3.org/2000/svg" viewBox="0 0 242 222"><defs><style>.cls-1{fill:none;}.cls-1,.cls-2,.cls-3{stroke:#942323;stroke-miterlimit:10;}.cls-1,.cls-2{stroke-width:5px;}.cls-2,.cls-3{fill:#fff;}.cls-3{stroke-linecap:round;stroke-width:3px;}</style></defs><title>網站</title><path class="cls-1" d="M161.62,105.73H96.71v30.12a4.21,4.21,0,0,0-.1.85c0,6.38,14.53,11.55,32.46,11.55,17.37,0,31.55-4.85,32.41-11Z"/><path class="cls-2" d="M128.1,126.77,84.44,105.5a2.46,2.46,0,0,1,0-4.37L128.1,79.87a2.2,2.2,0,0,1,1.94,0l43.66,21.26a2.46,2.46,0,0,1,0,4.37L130,126.77A2.2,2.2,0,0,1,128.1,126.77Z"/><polyline class="cls-3" points="84.27 103.31 84.27 136.94 81.84 142.41"/><line class="cls-3" x1="86.47" y1="142.41" x2="84.27" y2="136.95"/></svg>