<svg id="圖層_1" data-name="圖層 1" xmlns="http://www.w3.org/2000/svg" viewBox="0 0 97.19 89.8"><defs><style>.cls-1{fill:#942323;}.cls-2{fill:#dad6b2;}</style></defs><title>時程</title><path class="cls-1" d="M-51.09,311h-79.65a8.78,8.78,0,0,1-8.77-8.77V244a8.78,8.78,0,0,1,8.77-8.77h79.65A8.78,8.78,0,0,1-42.32,244v58.27A8.78,8.78,0,0,1-51.09,311Zm-79.65-70.8a3.77,3.77,0,0,0-3.77,3.77v58.27a3.77,3.77,0,0,0,3.77,3.77h79.65a3.77,3.77,0,0,0,3.77-3.77V244a3.77,3.77,0,0,0-3.77-3.77Z" transform="translate(139.51 -221.2)"/><line class="cls-2" x1="33.23" y1="2.5" x2="33.23" y2="29.56"/><path class="cls-1" d="M-106.28,253.26a2.5,2.5,0,0,1-2.5-2.5V223.7a2.5,2.5,0,0,1,2.5-2.5,2.5,2.5,0,0,1,2.5,2.5v27.06A2.5,2.5,0,0,1-106.28,253.26Z" transform="translate(139.51 -221.2)"/><line class="cls-2" x1="65.82" y1="2.5" x2="65.82" y2="29.56"/><path class="cls-1" d="M-73.69,253.26a2.5,2.5,0,0,1-2.5-2.5V223.7a2.5,2.5,0,0,1,2.5-2.5,2.5,2.5,0,0,1,2.5,2.5v27.06A2.5,2.5,0,0,1-73.69,253.26Z" transform="translate(139.51 -221.2)"/><line class="cls-2" x1="2.5" y1="38.41" x2="94.69" y2="38.41"/><rect class="cls-1" x="2.5" y="35.91" width="92.19" height="5"/><rect class="cls-1" x="9.02" y="45.39" width="14.67" height="14.67" rx="2.92" ry="2.92"/><rect class="cls-1" x="9.02" y="64.95" width="14.67" height="14.67" rx="2.92" ry="2.92"/><rect class="cls-1" x="29.97" y="45.39" width="14.67" height="14.67" rx="3.17" ry="3.17"/><rect class="cls-1" x="29.97" y="64.95" width="14.67" height="14.67" rx="2.92" ry="2.92"/><rect class="cls-1" x="50.92" y="45.39" width="14.67" height="14.67" rx="2.92" ry="2.92"/><rect class="cls-1" x="71.87" y="45.39" width="14.67" height="14.67" rx="2.92" ry="2.92"/><rect class="cls-1" x="50.92" y="64.95" width="14.67" height="14.67" rx="2.92" ry="2.92"/></svg>