<svg id="圖層_1" data-name="圖層 1" xmlns="http://www.w3.org/2000/svg" viewBox="0 0 102.33 100.77"><defs><style>.cls-1{fill:#942323;}.cls-2{fill:#dad6b2;}</style></defs><title>最新消息</title><path class="cls-1" d="M-143.37,210.93l-2.43-4.37a10.22,10.22,0,0,0,5.07-11,10.27,10.27,0,0,0-12.1-8l-1-4.9a15.27,15.27,0,0,1,18,11.89A15.2,15.2,0,0,1-143.37,210.93Z" transform="translate(215.04 -158.15)"/><path class="cls-1" d="M-182.87,258.92l-18.63-27.61-4.77,2L-215,212.73l14-5.94,43.46-37.56,22.51,52.89-49.48,4.57,16.53,25.93Zm-16.79-33.82L-181,252.7l5.58-2.37-13.75-21.56a4.52,4.52,0,0,1-.25-4.46,4.53,4.53,0,0,1,3.67-2.53l43.38-4-17.14-40.28-38.86,33.59-10.08,4.29,4.86,11.41Z" transform="translate(215.04 -158.15)"/><line class="cls-2" x1="76.28" y1="15.22" x2="85.01" y2="2.5"/><path class="cls-1" d="M-138.76,175.87a2.49,2.49,0,0,1-1.41-.44,2.5,2.5,0,0,1-.65-3.48l8.73-12.72a2.5,2.5,0,0,1,3.48-.65,2.5,2.5,0,0,1,.65,3.48l-8.73,12.72A2.5,2.5,0,0,1-138.76,175.87Z" transform="translate(215.04 -158.15)"/><line class="cls-2" x1="85.01" y1="29.86" x2="95.95" y2="22.57"/><path class="cls-1" d="M-130,190.52a2.5,2.5,0,0,1-2.08-1.11,2.5,2.5,0,0,1,.69-3.47l10.95-7.3a2.5,2.5,0,0,1,3.47.69,2.5,2.5,0,0,1-.69,3.47l-10.95,7.3A2.49,2.49,0,0,1-130,190.52Z" transform="translate(215.04 -158.15)"/><line class="cls-2" x1="86.91" y1="46.2" x2="99.83" y2="48.19"/><path class="cls-1" d="M-115.21,208.84l-.39,0-12.92-2A2.5,2.5,0,0,1-130.6,204a2.5,2.5,0,0,1,2.85-2.09l12.92,2a2.5,2.5,0,0,1,2.09,2.85A2.5,2.5,0,0,1-115.21,208.84Z" transform="translate(215.04 -158.15)"/></svg>