<svg id="圖層_1" data-name="圖層 1" xmlns="http://www.w3.org/2000/svg" viewBox="0 0 242 222"><defs><style>.cls-1{fill:#942323;}.cls-2{fill:#133180;}</style></defs><title>網站</title><path class="cls-1" d="M97.85,157.71c-9.85,3.36-21-3.08-24.83-14.35s1-23.18,10.89-26.54c7.34-2.5,15.57.31,21,7.18a2.2,2.2,0,0,1-.08,2.9,1.76,1.76,0,0,1-2.62-.33c-4.35-5.54-11-7.81-16.9-5.79-7.94,2.71-11.88,12.31-8.78,21.4s12.09,14.28,20,11.58c6-2.06,10-8.27,9.84-15.46a1.77,1.77,0,0,1,1.81-1.94,2.19,2.19,0,0,1,1.9,2.18C110.23,147.46,105.33,155.16,97.85,157.71Z"/><path class="cls-2" d="M134.55,115.37a1.63,1.63,0,0,1-.85.05A2.24,2.24,0,0,1,132,113q0-.3.06-.59a1.72,1.72,0,0,1,2.07-1.6,2.25,2.25,0,0,1,1.62,2.44c0,.16,0,.31,0,.47A1.82,1.82,0,0,1,134.55,115.37Z"/><path class="cls-1" d="M158.1,137.16c-9.85,3.36-21-3.08-24.83-14.35A24,24,0,0,1,132,113a1.73,1.73,0,0,1,2-1.68,2.24,2.24,0,0,1,1.68,2.39,19.32,19.32,0,0,0,1,7.88c3.1,9.09,12.09,14.28,20,11.58s11.88-12.31,8.78-21.4a19.31,19.31,0,0,0-4-6.86,2.24,2.24,0,0,1-.14-2.92,1.72,1.72,0,0,1,2.62.09,24,24,0,0,1,5,8.51C172.83,121.9,167.95,133.8,158.1,137.16Z"/><path class="cls-1" d="M152.59,115.55,128,101.35l4-9.74a2.31,2.31,0,0,0-1-2.8,1.67,1.67,0,0,0-2.44.83l-13.53,33-7.59-22.26a2.11,2.11,0,0,0-1.69-1.46,1.66,1.66,0,0,0-1.74,1.07l-14.9,36.32a2.31,2.31,0,0,0,1,2.8,1.67,1.67,0,0,0,2.44-.83l13.1-31.94,7.59,22.26h0l1.64,4.8-3.29,1.12a2.11,2.11,0,0,0,1.35,4l5-1.71,5.25-1.79a2.11,2.11,0,0,0-1.35-4l-3.52,1.2-1.36-4L126.54,105l24.57,14.2a1.67,1.67,0,0,0,2.44-.83A2.31,2.31,0,0,0,152.59,115.55Z"/><path class="cls-1" d="M107.67,96,96.8,99.69A3,3,0,0,1,94.88,94l10.86-3.71A3,3,0,0,1,107.67,96Z"/><path class="cls-1" d="M146.8,95.68l-11.69,4a2.11,2.11,0,0,1-1.35-4l11.69-4a2.11,2.11,0,0,1,1.35,4Z"/></svg>