<svg id="圖層_1" data-name="圖層 1" xmlns="http://www.w3.org/2000/svg" viewBox="0 0 97.2 73.61"><defs><style>.cls-1{fill:#942323;}.cls-2{fill:none;}.cls-3{fill:#fff;}</style></defs><title>大學</title><path class="cls-1" d="M-92.56,240.85a15,15,0,0,0-2.29-.64l-.11,26c-.78,3.67-12.36,8.68-29.91,8.68-18.29,0-30-5.36-30-9.05a1.83,1.83,0,0,1,0-.34l.05-.25v-25a8.5,8.5,0,0,1-5-2.31v26.84a6.33,6.33,0,0,0-.1,1.08c0,9.23,17.58,14.05,35,14.05,16.41,0,33.67-4.5,34.89-13.11l.13-25.53A6.81,6.81,0,0,1-92.56,240.85Z" transform="translate(173.61 -206.3)"/><path class="cls-2" d="M-125.84,255.93l-43.66-21.26a2.46,2.46,0,0,1,0-4.37L-125.84,209a2.2,2.2,0,0,1,1.94,0l43.66,21.26a2.46,2.46,0,0,1,0,4.37l-43.66,21.26A2.2,2.2,0,0,1-125.84,255.93Z" transform="translate(173.61 -206.3)"/><path class="cls-1" d="M-124.87,258.65a4.71,4.71,0,0,1-2.06-.48h0l-43.66-21.26a4.88,4.88,0,0,1-2.74-4.43A4.88,4.88,0,0,1-170.6,228l43.66-21.26a4.69,4.69,0,0,1,4.13,0L-79.15,228a4.88,4.88,0,0,1,2.74,4.43,4.88,4.88,0,0,1-2.74,4.43l-43.66,21.26A4.71,4.71,0,0,1-124.87,258.65Zm-43.41-26.18,43.41,21.14,43.41-21.14-43.41-21.14Z" transform="translate(173.61 -206.3)"/><path class="cls-1" d="M-172.11,273.08a1.5,1.5,0,0,1-.61-.13,1.5,1.5,0,0,1-.76-2l2.3-5.18V232.48a1.5,1.5,0,0,1,1.5-1.5,1.5,1.5,0,0,1,1.5,1.5v33.95l-2.56,5.76A1.5,1.5,0,0,1-172.11,273.08Z" transform="translate(173.61 -206.3)"/><line class="cls-3" x1="6.14" y1="65.27" x2="3.93" y2="59.81"/><path class="cls-1" d="M-167.47,273.08a1.5,1.5,0,0,1-1.39-.94l-2.2-5.47a1.5,1.5,0,0,1,.83-2,1.5,1.5,0,0,1,2,.83l2.2,5.47a1.5,1.5,0,0,1-.83,2A1.49,1.49,0,0,1-167.47,273.08Z" transform="translate(173.61 -206.3)"/></svg>