<svg id="圖層_1" data-name="圖層 1" xmlns="http://www.w3.org/2000/svg" viewBox="0 0 242 222"><defs><style>.cls-1,.cls-2{fill:#dad6b2;stroke:#942323;stroke-miterlimit:10;stroke-width:5px;}.cls-2{stroke-linecap:round;}.cls-3{fill:#942323;}</style></defs><title>網站</title><rect class="cls-1" x="86.39" y="82.6" width="92.19" height="70.8" rx="6.27" ry="6.27"/><line class="cls-2" x1="117.12" y1="68.6" x2="117.12" y2="95.66"/><line class="cls-2" x1="149.71" y1="68.6" x2="149.71" y2="95.66"/><line class="cls-1" x1="86.39" y1="104.51" x2="178.57" y2="104.51"/><rect class="cls-3" x="92.91" y="111.5" width="14.67" height="14.67" rx="2.92" ry="2.92"/><rect class="cls-3" x="92.91" y="131.05" width="14.67" height="14.67" rx="2.92" ry="2.92"/><rect class="cls-3" x="113.86" y="111.5" width="14.67" height="14.67" rx="3.17" ry="3.17"/><rect class="cls-3" x="113.86" y="131.05" width="14.67" height="14.67" rx="2.92" ry="2.92"/><rect class="cls-3" x="134.81" y="111.5" width="14.67" height="14.67" rx="2.92" ry="2.92"/><rect class="cls-3" x="155.76" y="111.5" width="14.67" height="14.67" rx="2.92" ry="2.92"/><rect class="cls-3" x="134.81" y="131.05" width="14.67" height="14.67" rx="2.92" ry="2.92"/></svg>