<svg id="圖層_1" data-name="圖層 1" xmlns="http://www.w3.org/2000/svg" viewBox="0 0 86.16 99.44"><defs><style>.cls-1{fill:#942323;}</style></defs><title>家長專欄</title><path class="cls-1" d="M-171.43,299.25h-14.3a5.53,5.53,0,0,1-5.53-5.53V218.84a5.53,5.53,0,0,1,5.53-5.53h61a5.53,5.53,0,0,1,5.53,5.53v7.81h-3v-7.81a2.57,2.57,0,0,0-2.56-2.56h-61a2.57,2.57,0,0,0-2.56,2.56v74.88a2.57,2.57,0,0,0,2.56,2.56h14.3Z" transform="translate(191.75 -212.82)"/><path class="cls-1" d="M-170.93,299.76h-14.8a6,6,0,0,1-6-6V218.84a6,6,0,0,1,6-6h61a6,6,0,0,1,6,6v8.31h-4v-8.31a2.07,2.07,0,0,0-2.06-2.06h-61a2.07,2.07,0,0,0-2.06,2.06v74.88a2.07,2.07,0,0,0,2.06,2.06h14.8Zm-14.8-85.94a5,5,0,0,0-5,5v74.88a5,5,0,0,0,5,5h13.8v-2h-13.8a3.07,3.07,0,0,1-3.06-3.06V218.84a3.07,3.07,0,0,1,3.06-3.06h61a3.07,3.07,0,0,1,3.06,3.06v7.31h2v-7.31a5,5,0,0,0-5-5Z" transform="translate(191.75 -212.82)"/><path class="cls-1" d="M-124.33,311.76h-43.59a6.34,6.34,0,0,1-6.33-6.33v-71a6.34,6.34,0,0,1,6.33-6.33h55.49a6.34,6.34,0,0,1,6.33,6.33v59.81a6.36,6.36,0,0,1-2,4.6L-120,310A6.31,6.31,0,0,1-124.33,311.76ZM-167.92,231a3.37,3.37,0,0,0-3.37,3.37v71a3.37,3.37,0,0,0,3.37,3.37h43.59a3.36,3.36,0,0,0,2.32-.92l11.9-11.24a3.38,3.38,0,0,0,1.06-2.45V234.37a3.37,3.37,0,0,0-3.37-3.37Z" transform="translate(191.75 -212.82)"/><path class="cls-1" d="M-124.33,312.26h-43.59a6.84,6.84,0,0,1-6.83-6.83v-71a6.84,6.84,0,0,1,6.83-6.83h55.49a6.84,6.84,0,0,1,6.83,6.83v59.81a6.86,6.86,0,0,1-2.14,5l-11.9,11.24A6.81,6.81,0,0,1-124.33,312.26Zm-43.59-83.72a5.84,5.84,0,0,0-5.83,5.83v71a5.84,5.84,0,0,0,5.83,5.83h43.59a5.82,5.82,0,0,0,4-1.59l11.9-11.24a5.86,5.86,0,0,0,1.83-4.24V234.37a5.84,5.84,0,0,0-5.83-5.83Zm43.59,80.75h-43.59a3.87,3.87,0,0,1-3.87-3.87v-71a3.88,3.88,0,0,1,3.87-3.87h55.49a3.88,3.88,0,0,1,3.87,3.87v59.81a3.88,3.88,0,0,1-1.21,2.81l-11.9,11.24A3.86,3.86,0,0,1-124.33,309.29Zm-43.59-77.79a2.87,2.87,0,0,0-2.87,2.87v71a2.87,2.87,0,0,0,2.87,2.87h43.59a2.86,2.86,0,0,0,2-.78l11.9-11.24a2.88,2.88,0,0,0,.9-2.09V234.37a2.87,2.87,0,0,0-2.87-2.87Z" transform="translate(191.75 -212.82)"/><path class="cls-1" d="M-121.75,296.1l-.65,14.18,14.82-14-12.05-1.9A1.83,1.83,0,0,0-121.75,296.1Z" transform="translate(191.75 -212.82)"/><line class="cls-1" x1="27.87" y1="30.53" x2="74.3" y2="30.53"/><rect class="cls-1" x="27.87" y="30.03" width="46.43" height="1"/><path class="cls-1" d="M-117.45,244.58h-46.43a1.23,1.23,0,0,1-1.23-1.23,1.23,1.23,0,0,1,1.23-1.23h46.43a1.23,1.23,0,0,1,1.23,1.23A1.23,1.23,0,0,1-117.45,244.58Z" transform="translate(191.75 -212.82)"/><path class="cls-1" d="M-117.45,245.08h-46.43a1.74,1.74,0,0,1-1.73-1.74,1.74,1.74,0,0,1,1.73-1.73h46.43a1.74,1.74,0,0,1,1.73,1.73A1.74,1.74,0,0,1-117.45,245.08Zm-46.43-2.47a.74.74,0,0,0-.73.73.74.74,0,0,0,.73.74h46.43a.74.74,0,0,0,.73-.74.74.74,0,0,0-.73-.73Z" transform="translate(191.75 -212.82)"/><line class="cls-1" x1="27.87" y1="38.43" x2="74.3" y2="38.43"/><rect class="cls-1" x="27.87" y="37.93" width="46.43" height="1"/><path class="cls-1" d="M-117.45,252.48h-46.43a1.23,1.23,0,0,1-1.23-1.23,1.23,1.23,0,0,1,1.23-1.23h46.43a1.23,1.23,0,0,1,1.23,1.23A1.23,1.23,0,0,1-117.45,252.48Z" transform="translate(191.75 -212.82)"/><path class="cls-1" d="M-117.45,253h-46.43a1.74,1.74,0,0,1-1.73-1.74,1.74,1.74,0,0,1,1.73-1.73h46.43a1.74,1.74,0,0,1,1.73,1.73A1.74,1.74,0,0,1-117.45,253Zm-46.43-2.47a.74.74,0,0,0-.73.73.74.74,0,0,0,.73.74h46.43a.74.74,0,0,0,.73-.74.74.74,0,0,0-.73-.73Z" transform="translate(191.75 -212.82)"/><line class="cls-1" x1="27.87" y1="46.33" x2="74.3" y2="46.33"/><rect class="cls-1" x="27.87" y="45.83" width="46.43" height="1"/><path class="cls-1" d="M-117.45,260.38h-46.43a1.23,1.23,0,0,1-1.23-1.23,1.23,1.23,0,0,1,1.23-1.23h46.43a1.23,1.23,0,0,1,1.23,1.23A1.23,1.23,0,0,1-117.45,260.38Z" transform="translate(191.75 -212.82)"/><path class="cls-1" d="M-117.45,260.88h-46.43a1.74,1.74,0,0,1-1.73-1.74,1.74,1.74,0,0,1,1.73-1.73h46.43a1.74,1.74,0,0,1,1.73,1.73A1.74,1.74,0,0,1-117.45,260.88Zm-46.43-2.47a.74.74,0,0,0-.73.73.74.74,0,0,0,.73.74h46.43a.74.74,0,0,0,.73-.74.74.74,0,0,0-.73-.73Z" transform="translate(191.75 -212.82)"/><line class="cls-1" x1="27.87" y1="54.23" x2="74.3" y2="54.23"/><rect class="cls-1" x="27.87" y="53.73" width="46.43" height="1"/><path class="cls-1" d="M-117.45,268.28h-46.43a1.23,1.23,0,0,1-1.23-1.23,1.23,1.23,0,0,1,1.23-1.23h46.43a1.23,1.23,0,0,1,1.23,1.23A1.23,1.23,0,0,1-117.45,268.28Z" transform="translate(191.75 -212.82)"/><path class="cls-1" d="M-117.45,268.78h-46.43a1.74,1.74,0,0,1-1.73-1.73,1.74,1.74,0,0,1,1.73-1.74h46.43a1.74,1.74,0,0,1,1.73,1.74A1.74,1.74,0,0,1-117.45,268.78Zm-46.43-2.47a.74.74,0,0,0-.73.74.74.74,0,0,0,.73.73h46.43a.74.74,0,0,0,.73-.73.74.74,0,0,0-.73-.74Z" transform="translate(191.75 -212.82)"/><line class="cls-1" x1="27.87" y1="62.14" x2="74.3" y2="62.14"/><rect class="cls-1" x="27.87" y="61.64" width="46.43" height="1"/><path class="cls-1" d="M-117.45,276.19h-46.43a1.23,1.23,0,0,1-1.23-1.23,1.23,1.23,0,0,1,1.23-1.23h46.43a1.23,1.23,0,0,1,1.23,1.23A1.23,1.23,0,0,1-117.45,276.19Z" transform="translate(191.75 -212.82)"/><path class="cls-1" d="M-117.45,276.69h-46.43a1.74,1.74,0,0,1-1.73-1.73,1.74,1.74,0,0,1,1.73-1.74h46.43a1.74,1.74,0,0,1,1.73,1.74A1.74,1.74,0,0,1-117.45,276.69Zm-46.43-2.47a.74.74,0,0,0-.73.74.74.74,0,0,0,.73.73h46.43a.74.74,0,0,0,.73-.73.74.74,0,0,0-.73-.74Z" transform="translate(191.75 -212.82)"/><line class="cls-1" x1="27.87" y1="70.04" x2="74.3" y2="70.04"/><rect class="cls-1" x="27.87" y="69.54" width="46.43" height="1"/><path class="cls-1" d="M-117.45,284.09h-46.43a1.23,1.23,0,0,1-1.23-1.23,1.23,1.23,0,0,1,1.23-1.23h46.43a1.23,1.23,0,0,1,1.23,1.23A1.23,1.23,0,0,1-117.45,284.09Z" transform="translate(191.75 -212.82)"/><path class="cls-1" d="M-117.45,284.59h-46.43a1.74,1.74,0,0,1-1.73-1.73,1.74,1.74,0,0,1,1.73-1.74h46.43a1.74,1.74,0,0,1,1.73,1.74A1.74,1.74,0,0,1-117.45,284.59Zm-46.43-2.47a.74.74,0,0,0-.73.74.74.74,0,0,0,.73.73h46.43a.74.74,0,0,0,.73-.73.74.74,0,0,0-.73-.74Z" transform="translate(191.75 -212.82)"/><line class="cls-1" x1="27.87" y1="77.94" x2="58.49" y2="77.94"/><rect class="cls-1" x="27.87" y="77.44" width="30.62" height="1"/><path class="cls-1" d="M-133.26,292h-30.62a1.23,1.23,0,0,1-1.23-1.23,1.23,1.23,0,0,1,1.23-1.23h30.62a1.23,1.23,0,0,1,1.23,1.23A1.23,1.23,0,0,1-133.26,292Z" transform="translate(191.75 -212.82)"/><path class="cls-1" d="M-133.26,292.49h-30.62a1.74,1.74,0,0,1-1.73-1.73,1.74,1.74,0,0,1,1.73-1.74h30.62a1.74,1.74,0,0,1,1.73,1.74A1.74,1.74,0,0,1-133.26,292.49ZM-163.88,290a.74.74,0,0,0-.73.74.74.74,0,0,0,.73.73h30.62a.74.74,0,0,0,.73-.73.74.74,0,0,0-.73-.74Z" transform="translate(191.75 -212.82)"/></svg>