<svg id="圖層_1" data-name="圖層 1" xmlns="http://www.w3.org/2000/svg" viewBox="0 0 242 222"><defs><style>.cls-1{fill:#942323;}</style></defs><title>網站</title><path class="cls-1" d="M103.57,150.44H89.27a5.53,5.53,0,0,1-5.53-5.53V70a5.53,5.53,0,0,1,5.53-5.53h61A5.53,5.53,0,0,1,155.83,70v7.81h-3V70a2.57,2.57,0,0,0-2.56-2.56h-61A2.57,2.57,0,0,0,86.71,70v74.88a2.57,2.57,0,0,0,2.56,2.56h14.3Z"/><path class="cls-1" d="M104.07,150.94H89.27a6,6,0,0,1-6-6V70a6,6,0,0,1,6-6h61a6,6,0,0,1,6,6v8.31h-4V70A2.07,2.07,0,0,0,150.3,68h-61A2.07,2.07,0,0,0,87.21,70v74.88A2.07,2.07,0,0,0,89.27,147h14.8ZM89.27,65a5,5,0,0,0-5,5v74.88a5,5,0,0,0,5,5h13.8v-2H89.27a3.07,3.07,0,0,1-3.06-3.06V70A3.07,3.07,0,0,1,89.27,67h61A3.07,3.07,0,0,1,153.37,70v7.31h2V70a5,5,0,0,0-5-5Z"/><path class="cls-1" d="M150.67,162.94H107.08a6.34,6.34,0,0,1-6.33-6.33v-71a6.34,6.34,0,0,1,6.33-6.33h55.49a6.34,6.34,0,0,1,6.33,6.33v59.81a6.36,6.36,0,0,1-2,4.6L155,161.21A6.31,6.31,0,0,1,150.67,162.94ZM107.08,82.19a3.37,3.37,0,0,0-3.37,3.37v71a3.37,3.37,0,0,0,3.37,3.37h43.59a3.36,3.36,0,0,0,2.32-.92l11.9-11.24a3.38,3.38,0,0,0,1.06-2.45V85.56a3.37,3.37,0,0,0-3.37-3.37Z"/><path class="cls-1" d="M150.67,163.44H107.08a6.84,6.84,0,0,1-6.83-6.83v-71a6.84,6.84,0,0,1,6.83-6.83h55.49a6.84,6.84,0,0,1,6.83,6.83v59.81a6.86,6.86,0,0,1-2.14,5l-11.9,11.24A6.81,6.81,0,0,1,150.67,163.44ZM107.08,79.72a5.84,5.84,0,0,0-5.83,5.83v71a5.84,5.84,0,0,0,5.83,5.83h43.59a5.82,5.82,0,0,0,4-1.59l11.9-11.24a5.86,5.86,0,0,0,1.83-4.24V85.56a5.84,5.84,0,0,0-5.83-5.83Zm43.59,80.75H107.08a3.87,3.87,0,0,1-3.87-3.87v-71a3.88,3.88,0,0,1,3.87-3.87h55.49a3.88,3.88,0,0,1,3.87,3.87v59.81a3.88,3.88,0,0,1-1.21,2.81l-11.9,11.24A3.86,3.86,0,0,1,150.67,160.48ZM107.08,82.69a2.87,2.87,0,0,0-2.87,2.87v71a2.87,2.87,0,0,0,2.87,2.87h43.59a2.86,2.86,0,0,0,2-.78l11.9-11.24a2.88,2.88,0,0,0,.9-2.09V85.56a2.87,2.87,0,0,0-2.87-2.87Z"/><path class="cls-1" d="M153.25,147.28l-.65,14.18,14.82-14-12.05-1.9A1.83,1.83,0,0,0,153.25,147.28Z"/><rect class="cls-1" x="111.12" y="94.03" width="46.43" height="1"/><path class="cls-1" d="M157.55,95.76H111.12a1.23,1.23,0,0,1,0-2.47h46.43a1.23,1.23,0,0,1,0,2.47Z"/><path class="cls-1" d="M157.55,96.26H111.12a1.73,1.73,0,0,1,0-3.47h46.43a1.73,1.73,0,0,1,0,3.47Zm-46.43-2.47a.73.73,0,1,0,0,1.47h46.43a.73.73,0,0,0,0-1.47Z"/><rect class="cls-1" x="111.12" y="101.93" width="46.43" height="1"/><path class="cls-1" d="M157.55,103.66H111.12a1.23,1.23,0,0,1,0-2.47h46.43a1.23,1.23,0,0,1,0,2.47Z"/><path class="cls-1" d="M157.55,104.17H111.12a1.73,1.73,0,0,1,0-3.47h46.43a1.73,1.73,0,0,1,0,3.47Zm-46.43-2.47a.73.73,0,1,0,0,1.47h46.43a.73.73,0,0,0,0-1.47Z"/><rect class="cls-1" x="111.12" y="109.83" width="46.43" height="1"/><path class="cls-1" d="M157.55,111.57H111.12a1.23,1.23,0,0,1,0-2.47h46.43a1.23,1.23,0,0,1,0,2.47Z"/><path class="cls-1" d="M157.55,112.07H111.12a1.73,1.73,0,1,1,0-3.47h46.43a1.73,1.73,0,0,1,0,3.47Zm-46.43-2.47a.73.73,0,1,0,0,1.47h46.43a.73.73,0,0,0,0-1.47Z"/><rect class="cls-1" x="111.12" y="117.74" width="46.43" height="1"/><path class="cls-1" d="M157.55,119.47H111.12a1.23,1.23,0,0,1,0-2.47h46.43a1.23,1.23,0,0,1,0,2.47Z"/><path class="cls-1" d="M157.55,120H111.12a1.73,1.73,0,0,1,0-3.47h46.43a1.73,1.73,0,0,1,0,3.47Zm-46.43-2.47a.73.73,0,1,0,0,1.47h46.43a.73.73,0,0,0,0-1.47Z"/><rect class="cls-1" x="111.12" y="125.64" width="46.43" height="1"/><path class="cls-1" d="M157.55,127.37H111.12a1.23,1.23,0,0,1,0-2.47h46.43a1.23,1.23,0,0,1,0,2.47Z"/><path class="cls-1" d="M157.55,127.87H111.12a1.73,1.73,0,1,1,0-3.47h46.43a1.73,1.73,0,0,1,0,3.47Zm-46.43-2.47a.73.73,0,1,0,0,1.47h46.43a.73.73,0,0,0,0-1.47Z"/><rect class="cls-1" x="111.12" y="133.54" width="46.43" height="1"/><path class="cls-1" d="M157.55,135.27H111.12a1.23,1.23,0,0,1,0-2.47h46.43a1.23,1.23,0,0,1,0,2.47Z"/><path class="cls-1" d="M157.55,135.77H111.12a1.73,1.73,0,0,1,0-3.47h46.43a1.73,1.73,0,0,1,0,3.47Zm-46.43-2.47a.73.73,0,1,0,0,1.47h46.43a.73.73,0,0,0,0-1.47Z"/><rect class="cls-1" x="111.12" y="141.44" width="30.62" height="1"/><path class="cls-1" d="M141.74,143.18H111.12a1.23,1.23,0,1,1,0-2.47h30.62a1.23,1.23,0,0,1,0,2.47Z"/><path class="cls-1" d="M141.74,143.68H111.12a1.73,1.73,0,1,1,0-3.47h30.62a1.73,1.73,0,1,1,0,3.47Zm-30.62-2.47a.73.73,0,1,0,0,1.47h30.62a.73.73,0,1,0,0-1.47Z"/></svg>