<svg id="圖層_1" data-name="圖層 1" xmlns="http://www.w3.org/2000/svg" viewBox="0 0 390.53 253.18"><defs><style>.cls-1{opacity:0.43;}.cls-2{fill:#942323;}.cls-3{opacity:0.75;}.cls-4{fill:#1e556d;}.cls-5{fill:#dad6b2;}</style></defs><title>網站</title><g class="cls-1"><circle class="cls-2" cx="314.65" cy="160.28" r="29.96" transform="translate(62.83 407.83) rotate(-71.5)"/></g><g class="cls-3"><circle class="cls-4" cx="279.59" cy="155.91" r="17.46"/></g><g class="cls-3"><path class="cls-4" d="M86.39,143A44.85,44.85,0,1,1,133,98.23h-7.47a37.37,37.37,0,1,0-38.85,37.34Z"/></g><path class="cls-2" d="M97,99.25,96,97.36a4.45,4.45,0,0,0-3.05-8.25L92.51,87A6.62,6.62,0,0,1,97,99.25Z"/><path class="cls-2" d="M79.92,120.06l-8.08-12-2.07.88L66,100,72,97.46,90.86,81.17l9.76,22.93-21.46,2,7.17,11.24ZM72.64,105.4l8.08,12,2.42-1-6-9.35a2,2,0,0,1,1.48-3l18.81-1.74L90,84.76,73.18,99.32l-4.37,1.86,2.11,4.95Z"/><line class="cls-5" x1="99.04" y1="82.97" x2="102.83" y2="77.45"/><path class="cls-2" d="M99,84.05a1.08,1.08,0,0,1-.89-1.7l3.78-5.51a1.08,1.08,0,1,1,1.79,1.23l-3.78,5.51A1.08,1.08,0,0,1,99,84.05Z"/><line class="cls-5" x1="102.83" y1="89.32" x2="107.57" y2="86.15"/><path class="cls-2" d="M102.83,90.4a1.08,1.08,0,0,1-.6-2L107,85.25a1.08,1.08,0,1,1,1.2,1.8l-4.75,3.16A1.08,1.08,0,0,1,102.83,90.4Z"/><line class="cls-5" x1="103.65" y1="96.4" x2="109.25" y2="97.27"/><path class="cls-2" d="M109.25,98.35h-.17l-5.6-.87a1.08,1.08,0,0,1,.33-2.14l5.6.87a1.08,1.08,0,0,1-.16,2.16Z"/><path class="cls-2" d="M150.66,142.94H122.9v27.82h-5.15V165.5A192.2,192.2,0,0,1,97.65,167l-1.36-4.9h5.15V142.94H96.71v-4.6h53.95Zm-7.51-6.87h-5.33V122H109.49v14.08h-5.21V117.39h38.87Zm-25.4,9.9v-3h-11v3Zm0,7.45v-3.36h-11v3.36Zm0,7.27v-3.12h-11v4.15Q114.76,161.2,117.75,160.68Zm17.89-31.88H111.43v-4.09h24.22Zm0,6.81H111.43v-4h24.22ZM151,166.44l-2.85,4.78a45.25,45.25,0,0,1-10.41-5.9A37.35,37.35,0,0,1,126.59,171l-2.79-4.54a33.37,33.37,0,0,0,9.93-4.51A38,38,0,0,1,127,151.12H125V146.3h23.37a30.81,30.81,0,0,1-7.05,15.56A33.88,33.88,0,0,0,151,166.44Zm-9.17-15.32h-9.23a25,25,0,0,0,5,7.39A26.22,26.22,0,0,0,141.79,151.12Z"/><path class="cls-2" d="M168.83,154a55.62,55.62,0,0,1-6,12.41L158.35,163A49.34,49.34,0,0,0,164,151.69Zm18.47-3.91H175.7v20.71h-5.45V150.06H158.83v-5.15h11.41V140H159.47v-5h6.08A61.55,61.55,0,0,0,163,128l3.69-1.91h-7.05v-5h9.93a16.89,16.89,0,0,0-1.88-3.78l5.9-1.3a42.7,42.7,0,0,1,2.3,5.09h10.41v5h-6.72l3.84,2.12a62.18,62.18,0,0,1-3.15,6.87h6.08v5H175.7v4.87h11.59Zm-9.11-24H168.1a63.38,63.38,0,0,1,3.27,9h3.3A54.85,54.85,0,0,0,178.18,126.08Zm8,33.85-4.48,2.54a42.45,42.45,0,0,0-4-9.29l4.6-2.12A35.56,35.56,0,0,1,186.2,159.93Zm26.52-19.59h-5.63v30.3H201.7v-30.3h-6.27q-.18,21.19-7.08,30.36L183.84,167q6.05-8.14,6.05-24.95V120.81a64.66,64.66,0,0,0,17.5-4.6l3.78,4.6a76.1,76.1,0,0,1-15.74,4.69V135h17.29Z"/><path class="cls-2" d="M235,139.34l-3.39,4.54a57.86,57.86,0,0,0-11.11-7.63l3.36-4.54A62.47,62.47,0,0,1,235,139.34Zm.88,11a96.67,96.67,0,0,1-10.23,20.77l-4.84-3.24a93.09,93.09,0,0,0,10.29-20.59Zm0-25.07-3.84,4.24a52,52,0,0,0-11-9l4-4.18A63.72,63.72,0,0,1,235.91,125.26Zm37,38.75q0,4.21-1.85,5.39t-6.81,1.18q-1.82,0-3.27-.12l-2-5.15q5.09.09,6.86,0t1.77-1.33v-7.17q-10.05,2.7-21.16,4.81l-1.85-3.45q-1.57,7.87-6,12.38L234.19,167a18.23,18.23,0,0,0,3.89-6.6q1.56-4.24,1.56-12.75V134.83h13.83V116.61H259v18.22h13.9Zm-23-33.54-4.78,2.72a66.33,66.33,0,0,0-8-12.32l4.84-2.91A66.72,66.72,0,0,1,249.87,130.47Zm17.68,21V139.86H245.08v3.63q9.69.76,19.1,1.88l-1.42,5.27q-7.81-1.36-17.68-2.12a67.85,67.85,0,0,1-.3,8A194.16,194.16,0,0,0,267.55,151.51Zm7.3-31.39a64.73,64.73,0,0,1-6.93,13.35L262.76,131a66,66,0,0,0,7-13Z"/><path class="cls-2" d="M294.94,154.84a73.14,73.14,0,0,1-8,13.9l-4.6-3a68.86,68.86,0,0,0,7.75-13.17Zm35.33-3.72h-41V121.06h11.66a28.78,28.78,0,0,0,2.88-5.27l6.05,1.12a20.54,20.54,0,0,1-2.27,4.15h22.67Zm-5.33-21.55v-3.78H294.61v3.78Zm0,8.42v-3.91H294.61V138Zm0,8.39v-3.91H294.61v3.91Zm.76,15.17q-.36,8.57-8.63,8.57H303.81a6.84,6.84,0,0,1-4.65-1.56,5.74,5.74,0,0,1-1.8-4.59v-10.6h5.45v9.81a1.54,1.54,0,0,0,.83,1.53,10.45,10.45,0,0,0,3.74.41l9.26-.09a4,4,0,0,0,2.21-.7q1.06-.7,1.42-5Zm-7.84-2.15-4.75,2.91a53,53,0,0,0-6.27-7.63l4.51-2.85A42,42,0,0,1,317.86,159.38Zm19.68,6.69-4.84,2.66a60.2,60.2,0,0,0-8.57-13l4.78-2.72A67.43,67.43,0,0,1,337.54,166.07Z"/></svg>