<svg id="圖層_1" data-name="圖層 1" xmlns="http://www.w3.org/2000/svg" viewBox="0 0 390.53 253.18"><defs><style>.cls-1{fill:#942323;stroke:#942323;stroke-miterlimit:10;}</style></defs><title>數字</title><path class="cls-1" d="M195.56,185a3.41,3.41,0,1,1,0-6.82,25.88,25.88,0,1,0,0-51.76,3.41,3.41,0,1,1,0-6.82,32.7,32.7,0,1,1,0,65.41Z"/><path class="cls-1" d="M195.45,184.86a32.74,32.74,0,0,1-32.7-32.7,3.41,3.41,0,1,1,6.82,0,25.88,25.88,0,0,0,51.76,0,3.41,3.41,0,1,1,6.82,0A32.74,32.74,0,0,1,195.45,184.86Z"/><path class="cls-1" d="M224.27,104.28a3.41,3.41,0,0,1-3.41-3.41,25.88,25.88,0,0,0-51.76,0,3.41,3.41,0,0,1-6.82,0,32.7,32.7,0,0,1,65.41,0A3.41,3.41,0,0,1,224.27,104.28Z"/><path class="cls-1" d="M218.14,122.12a3.41,3.41,0,0,1-2.71-5.48A25.65,25.65,0,0,0,220.7,101,25.91,25.91,0,0,0,194.82,75.1a3.41,3.41,0,1,1,0-6.82A32.74,32.74,0,0,1,227.52,101a32.4,32.4,0,0,1-6.67,19.79A3.41,3.41,0,0,1,218.14,122.12Z"/><path class="cls-1" d="M210.78,102.48a3.41,3.41,0,0,1-3.41-3.41,10.25,10.25,0,0,0-10.23-10.23,3.41,3.41,0,0,1,0-6.82,17.08,17.08,0,0,1,17.06,17.06A3.41,3.41,0,0,1,210.78,102.48Z"/></svg>