<svg id="圖層_1" data-name="圖層 1" xmlns="http://www.w3.org/2000/svg" viewBox="0 0 390.53 253.18"><defs><style>.cls-1{fill:#942323;stroke:#942323;stroke-miterlimit:10;}.cls-2{fill:#1e556d;}</style></defs><title>數字</title><path class="cls-1" d="M193.77,184.89a31.07,31.07,0,0,1-31-31V99a31,31,0,0,1,61.91-3.16,3.41,3.41,0,0,1-6.79.69A24.21,24.21,0,0,0,169.56,99v54.82a24.24,24.24,0,0,0,24.21,24.21,3.41,3.41,0,0,1,0,6.82Z"/><path class="cls-1" d="M195.26,185.18a32.56,32.56,0,0,1-32.53-32.53,3.41,3.41,0,1,1,6.82,0,25.69,25.69,0,1,0,12.73-22.19,3.41,3.41,0,0,1-3.45-5.89,32.53,32.53,0,1,1,16.43,60.61Z"/><circle class="cls-2" cx="195.3" cy="152.72" r="14.26"/></svg>