<svg id="圖層_1" data-name="圖層 1" xmlns="http://www.w3.org/2000/svg" viewBox="0 0 390.53 253.18"><defs><style>.cls-1{fill:#942323;stroke:#942323;stroke-miterlimit:10;}.cls-2{fill:#1e556d;}</style></defs><title>數字</title><path class="cls-1" d="M184.47,119.83a3.46,3.46,0,0,1-.69-.07,26.2,26.2,0,0,1-20.86-25.59V72.33a3.41,3.41,0,0,1,3.41-3.41h56.05a3.41,3.41,0,1,1,0,6.82H169.75V94.17a19.35,19.35,0,0,0,15.4,18.9,3.41,3.41,0,0,1-.68,6.75Z"/><ellipse class="cls-2" cx="193.87" cy="149.67" rx="13.65" ry="13.92"/><path class="cls-1" d="M193.71,184.26h-.9c-19.16-.51-27.88-14.66-29.82-22.06a3.41,3.41,0,1,1,6.6-1.72c.18.66,4.67,16.46,23.4,17a26.49,26.49,0,0,0,19.22-7.62,28.75,28.75,0,0,0,8.63-20.49,28.28,28.28,0,0,0-18-26.26,3.41,3.41,0,0,1,2.45-6.37,35.14,35.14,0,0,1,22.33,32.63A35.6,35.6,0,0,1,217,174.69,33.16,33.16,0,0,1,193.71,184.26Z"/></svg>