<svg id="圖層_1" data-name="圖層 1" xmlns="http://www.w3.org/2000/svg" viewBox="0 0 390.53 253.18"><defs><style>.cls-1{fill:#942323;stroke:#942323;stroke-miterlimit:10;}.cls-2{fill:#1e556d;}</style></defs><title>網站</title><path class="cls-1" d="M199.67,172.11a31.62,31.62,0,0,1-31.59-31.59,3.41,3.41,0,1,1,6.82,0,24.76,24.76,0,0,0,49.53,0V128.14a3.41,3.41,0,1,1,6.82,0v12.38A31.62,31.62,0,0,1,199.67,172.11Z"/><circle class="cls-2" cx="202.3" cy="92.77" r="14.26"/><path class="cls-1" d="M203.08,129.74a37.29,37.29,0,0,1-26.37-63.66,3.41,3.41,0,0,1,4.82,4.82A30.47,30.47,0,1,0,224.63,114a3.41,3.41,0,0,1,4.82,4.82A37,37,0,0,1,203.08,129.74Z"/><path class="cls-1" d="M179.13,119.79a3.4,3.4,0,0,1-2.41-1A37.29,37.29,0,1,1,229.45,66a3.41,3.41,0,0,1-4.82,4.82A30.47,30.47,0,0,0,181.54,114a3.41,3.41,0,0,1-2.41,5.82Z"/></svg>