<svg id="圖層_1" data-name="圖層 1" xmlns="http://www.w3.org/2000/svg" viewBox="0 0 390.53 253.18"><defs><style>.cls-1{fill:#942323;stroke:#942323;stroke-miterlimit:10;}</style></defs><title>數字</title><path class="cls-1" d="M195.27,185.25a32,32,0,1,1,32-32A32,32,0,0,1,195.27,185.25Zm0-57.18a25.18,25.18,0,1,0,25.18,25.18A25.21,25.21,0,0,0,195.27,128.07Z"/><path class="cls-1" d="M195.27,125.3a28.68,28.68,0,1,1,28.68-28.68A28.72,28.72,0,0,1,195.27,125.3Zm0-50.54a21.86,21.86,0,1,0,21.86,21.86A21.89,21.89,0,0,0,195.27,74.76Z"/><path class="cls-1" d="M195,173.66a3.41,3.41,0,0,1,0-6.82,14,14,0,0,0,14-14,3.41,3.41,0,0,1,6.82,0A20.87,20.87,0,0,1,195,173.66Z"/><path class="cls-1" d="M181.65,99.94a3.41,3.41,0,0,1-3.41-3.41A17.08,17.08,0,0,1,195.3,79.47a3.41,3.41,0,0,1,0,6.82,10.25,10.25,0,0,0-10.23,10.23A3.41,3.41,0,0,1,181.65,99.94Z"/></svg>