<svg id="圖層_1" data-name="圖層 1" xmlns="http://www.w3.org/2000/svg" viewBox="0 0 390.53 253.18"><defs><style>.cls-1{fill:#1e556d;}.cls-2{fill:#942323;stroke:#942323;stroke-miterlimit:10;}</style></defs><title>數字</title><circle class="cls-1" cx="183.16" cy="115.12" r="11.37"/><path class="cls-2" d="M164.92,106.26a3.41,3.41,0,0,1-3.41-3.41,26.18,26.18,0,0,1,26.15-26.15,3.41,3.41,0,0,1,0,6.82,19.35,19.35,0,0,0-19.33,19.33A3.41,3.41,0,0,1,164.92,106.26Z"/><path class="cls-2" d="M205.59,184.67a3.41,3.41,0,0,1-3.41-3.41V71.92a3.41,3.41,0,0,1,6.82,0V181.26A3.41,3.41,0,0,1,205.59,184.67Z"/><path class="cls-2" d="M225.75,148.85H183.11a21.77,21.77,0,0,1-21.75-21.75,3.41,3.41,0,1,1,6.82,0A14.94,14.94,0,0,0,183.11,142h42.64a3.41,3.41,0,0,1,0,6.82Z"/></svg>