<svg id="圖層_1" data-name="圖層 1" xmlns="http://www.w3.org/2000/svg" viewBox="0 0 390.53 253.18"><defs><style>.cls-1{fill:#942323;stroke:#942323;stroke-miterlimit:10;}</style></defs><title>數字</title><path class="cls-1" d="M179.74,103.61a3.44,3.44,0,0,1-3.44-3.44,17.92,17.92,0,0,1,17.9-17.9,3.44,3.44,0,0,1,0,6.87,11,11,0,0,0-11,11A3.44,3.44,0,0,1,179.74,103.61Z"/><path class="cls-1" d="M212.78,185.57a3.44,3.44,0,0,1-2.06-6.19,26.07,26.07,0,0,0,10.46-20.76V100.39a25.91,25.91,0,1,0-51.82,0v17.23a3.44,3.44,0,0,1-6.87,0V100.39a32.78,32.78,0,1,1,65.56,0v58.24a33,33,0,0,1-13.22,26.26A3.41,3.41,0,0,1,212.78,185.57Z"/></svg>