<svg id="圖層_1" data-name="圖層 1" xmlns="http://www.w3.org/2000/svg" viewBox="0 0 390.53 253.18"><defs><style>.cls-1{fill:#942323;stroke:#942323;stroke-miterlimit:10;}.cls-2{fill:#1e556d;}</style></defs><title>數字</title><path class="cls-1" d="M196.4,185.07a31.62,31.62,0,0,1-31.59-31.59,3.41,3.41,0,0,1,6.82,0,24.76,24.76,0,1,0,49.53,0V141.1a3.41,3.41,0,0,1,6.82,0v12.38A31.62,31.62,0,0,1,196.4,185.07Z"/><circle class="cls-2" cx="199.04" cy="105.74" r="14.26"/><path class="cls-1" d="M199.82,142.7A37.29,37.29,0,0,1,173.45,79a3.41,3.41,0,0,1,4.82,4.82A30.47,30.47,0,1,0,221.36,127a3.41,3.41,0,1,1,4.82,4.82A37,37,0,0,1,199.82,142.7Z"/><path class="cls-1" d="M175.86,132.75a3.4,3.4,0,0,1-2.41-1A37.29,37.29,0,0,1,226.19,79a3.41,3.41,0,0,1-4.82,4.82,30.47,30.47,0,0,0-43.09,43.09,3.41,3.41,0,0,1-2.41,5.82Z"/></svg>