<svg id="圖層_1" data-name="圖層 1" xmlns="http://www.w3.org/2000/svg" viewBox="0 0 390.53 253.18"><defs><style>.cls-1{fill:#942323;stroke:#942323;stroke-miterlimit:10;}.cls-2{fill:#1e556d;}</style></defs><title>數字</title><path class="cls-1" d="M225,184.26H169a3.41,3.41,0,0,1-3.41-3.41V159a26.15,26.15,0,0,1,26.12-26.12,3.41,3.41,0,0,1,0,6.82A19.32,19.32,0,0,0,172.4,159v18.42H225a3.41,3.41,0,1,1,0,6.82Z"/><circle class="cls-2" cx="194.46" cy="105.3" r="14.53"/><path class="cls-1" d="M192.64,139.73a3.41,3.41,0,1,1,0-6.82,28.61,28.61,0,0,0,28.57-28.57,29.13,29.13,0,0,0-8.76-20.77,27.25,27.25,0,0,0-19.72-7.81C173.56,76.27,169,92.35,168.78,93a3.41,3.41,0,0,1-6.6-1.75c2-7.5,10.85-21.83,30.36-22.35a33.7,33.7,0,0,1,24.67,9.74A36,36,0,0,1,228,104.33,35.44,35.44,0,0,1,192.64,139.73Z"/></svg>