<svg id="圖層_1" data-name="圖層 1" xmlns="http://www.w3.org/2000/svg" viewBox="0 0 390.53 253.18"><defs><style>.cls-1{fill:#942323;stroke:#942323;stroke-miterlimit:10;}</style></defs><title>數字</title><path class="cls-1" d="M195.27,184.89a31,31,0,0,1-31-31V99.25a31,31,0,1,1,61.93,0v54.68A31,31,0,0,1,195.27,184.89Zm0-109.78a24.17,24.17,0,0,0-24.14,24.14v54.68a24.14,24.14,0,1,0,48.28,0V99.25A24.17,24.17,0,0,0,195.27,75.11Z"/><path class="cls-1" d="M194,174.49a3.41,3.41,0,0,1,0-6.82,14.94,14.94,0,0,0,14.92-14.92,3.41,3.41,0,1,1,6.82,0A21.77,21.77,0,0,1,194,174.49Z"/><path class="cls-1" d="M177.71,104a3.41,3.41,0,0,1-3.41-3.41A21.77,21.77,0,0,1,196,78.83a3.41,3.41,0,1,1,0,6.82,14.94,14.94,0,0,0-14.92,14.92A3.41,3.41,0,0,1,177.71,104Z"/></svg>