<svg id="圖層_1" data-name="圖層 1" xmlns="http://www.w3.org/2000/svg" viewBox="0 0 390.53 253.18"><defs><style>.cls-1{fill:#942323;}.cls-2{fill:#133180;}.cls-3{fill:#1e556d;}</style></defs><title>網站</title><path class="cls-1" d="M211.12,129c-.73,6.38-7.27,10.88-14.57,10s-12.64-6.71-11.9-13.08c.55-4.75,4.29-8.59,9.54-9.78a1.36,1.36,0,0,1,1.59.81,1.08,1.08,0,0,1-.88,1.37c-4.23,1-7.25,4.05-7.7,7.89-.59,5.14,3.72,9.87,9.6,10.55s11.15-3,11.75-8.1c.45-3.91-2-7.75-6-9.57a1.09,1.09,0,0,1-.6-1.52,1.35,1.35,0,0,1,1.72-.48C208.68,119.36,211.68,124.13,211.12,129Z"/><path class="cls-2" d="M197.24,97.33a1,1,0,0,1-.19.49,1.38,1.38,0,0,1-1.78.3l-.31-.19a1.06,1.06,0,0,1-.35-1.58,1.39,1.39,0,0,1,1.79-.25l.25.15A1.12,1.12,0,0,1,197.24,97.33Z"/><path class="cls-1" d="M215.61,90c-.73,6.38-7.27,10.88-14.57,10a14.77,14.77,0,0,1-5.77-1.9,1.06,1.06,0,0,1-.4-1.57,1.38,1.38,0,0,1,1.78-.3,11.92,11.92,0,0,0,4.66,1.53c5.89.68,11.15-3,11.75-8.1s-3.72-9.87-9.6-10.55a11.91,11.91,0,0,0-4.89.43,1.38,1.38,0,0,1-1.66-.7,1.06,1.06,0,0,1,.74-1.44,14.77,14.77,0,0,1,6.06-.54C211,77.73,216.34,83.6,215.61,90Z"/><path class="cls-3" d="M202.11,87.32,187.7,97.25l-4.37-4.8a1.42,1.42,0,0,0-1.81-.21,1,1,0,0,0-.18,1.58l14.79,16.26-14.41-1.66a1.3,1.3,0,0,0-1.26.55,1,1,0,0,0,.14,1.25l16.29,17.91a1.42,1.42,0,0,0,1.81.21,1,1,0,0,0,.18-1.58L184.56,111,199,112.67h0l3.11.36-.25,2.13a1.3,1.3,0,0,0,2.56.29l.37-3.25.39-3.4a1.3,1.3,0,0,0-2.56-.29l-.26,2.28-2.58-.3L189.33,99l14.41-9.93a1,1,0,0,0,.18-1.58A1.42,1.42,0,0,0,202.11,87.32Z"/><path class="cls-1" d="M179.33,107.18l-.81,7a1.86,1.86,0,0,1-3.66-.42l.81-7a1.86,1.86,0,0,1,3.66.42Z"/><path class="cls-3" d="M189.51,85.3l-.87,7.57a1.3,1.3,0,0,1-2.56-.29L187,85a1.3,1.3,0,0,1,2.56.29Z"/></svg>