<svg id="圖層_1" data-name="圖層 1" xmlns="http://www.w3.org/2000/svg" viewBox="0 0 390.53 253.18"><defs><style>.cls-1,.cls-3{fill:#942323;}.cls-1{stroke:#942323;}.cls-1,.cls-2{stroke-miterlimit:10;fill-rule:evenodd;}.cls-2{fill:#fff;stroke:#fff;}</style></defs><title>網站</title><path class="cls-1" d="M373.77,143.17H113.38a51.77,51.77,0,1,0-4,9H373.77a4.48,4.48,0,1,0,0-9Z"/><path class="cls-2" d="M66.15,125.26a1.2,1.2,0,0,1,0-1.69l13.16-13.19-1,.11A1.2,1.2,0,0,1,78,108.1l4.36-.49a1.22,1.22,0,0,1,.69.11,1.26,1.26,0,0,1,.7,1.12h0s0,.05,0,.08l-.51,4.39a1.2,1.2,0,1,1-2.38-.26l.11-1L67.83,125.26a1.19,1.19,0,0,1-1.69,0ZM46.89,112.13c.2-5.14,4.24-7.75,8.11-8.1.19,0,1.13,0,1.37,0a9.8,9.8,0,0,1,3.47,1c.21.11.77.43.84.49a7.94,7.94,0,0,1,3.61,6.56c.16,4.45-1.49,8-4.54,9.86a8.14,8.14,0,0,1-8.32,0c-3.05-1.82-4.7-5.41-4.54-9.86Zm5.76,7.8a5.74,5.74,0,0,0,5.88,0c2.27-1.36,3.5-4.17,3.37-7.71a5.7,5.7,0,0,0-1.41-3.69A8.43,8.43,0,0,1,53.34,113a1.2,1.2,0,0,1-1.27-1.12,1.18,1.18,0,0,1,1.1-1.28,6,6,0,0,0,5.35-3.56,7.62,7.62,0,0,0-2.93-.69c-3,.12-6.16,2-6.3,5.82-.13,3.55,1.1,6.35,3.37,7.71Zm33.78,8.56V151a1.16,1.16,0,0,1-1.2,1.15H65.17A1.19,1.19,0,0,1,63.93,151v-9.87a1.25,1.25,0,0,1,1.24-1.21H73a1.26,1.26,0,0,1,1.25,1.21v8.62h3.71v-14H72.55v1a1.19,1.19,0,1,1-2.39,0v-2.16a1.19,1.19,0,0,1,1.13-1.25h7.82a1.27,1.27,0,0,1,1.22,1.25v15.19H84v-20H78.65v.38a1.19,1.19,0,1,1-2.39,0v-1.57a1.16,1.16,0,0,1,1.16-1.2h7.81a1.2,1.2,0,0,1,1.2,1.2Zm-14.6,13.8h-5.5v7.44h5.5v-7.44Zm-6.36-6.44a1.2,1.2,0,0,0,1-1.39l-.2-1.07c-1-5.34-6-7.77-10.57-7.77h-.09C51,125.64,46,128,45,133.37l-2.81,15.27a1.22,1.22,0,0,0,.26,1,1.2,1.2,0,0,0,.92.44H59.24a1.2,1.2,0,0,0,0-2.4H44.83l2.55-13.86c.74-4,4.68-5.8,8.26-5.8s7.5,1.8,8.24,5.8l.19,1.06a1.2,1.2,0,0,0,1.4,1Zm-8.58-2.2a1.2,1.2,0,1,0,0,2.4h2.33a1.2,1.2,0,0,0,0-2.4Z"/><path class="cls-3" d="M176.28,110h-9.89v4.35h8.42v12.28q0,2.69-3.65,2.69a19.16,19.16,0,0,1-2.23-.15l-1.18-3.7q.27,0,2.54,0a.79.79,0,0,0,.5-.24.67.67,0,0,0,.27-.49V117.9h-4.68v13.23h-3.86V117.9H157.7v11.25H154V114.33h8.53V110H152.33v-3.53h10.21V102h-5.48a29,29,0,0,1-1.81,3.32l-3.13-2.21a33.13,33.13,0,0,0,4-9.28l3.53,1a25.79,25.79,0,0,1-1.15,3.61h4.05V93.54h3.86v4.91h9V102h-9v4.43h9.89Zm5.42,13.21h-3.61V96.52h3.61Zm7.1,4.93a2.51,2.51,0,0,1-1.26,2.09q-1.26.87-7.08.87l-1.51-3.78q1.89.11,3.09.1a8.35,8.35,0,0,0,2.52-.2.83.83,0,0,0,.38-.81V93.54h3.86Z"/><path class="cls-3" d="M232.87,99.77h-30v14.11q0,10.56-4.43,17.38l-3.23-2.16q3.82-5.82,3.82-15.22V96.4h14.11a22,22,0,0,0-1.64-2.25l4.18-.9q.84,1.43,1.81,3.15h15.35Zm.25,27.74L232,131.16A44.78,44.78,0,0,1,217.48,128a51.23,51.23,0,0,1-13.17,3.32l-1.76-3.65a36.13,36.13,0,0,0,10.75-2,15.52,15.52,0,0,1-5.75-6.36h-1.89v-3.4h22.57v3.4a22.34,22.34,0,0,1-6.68,6.36A37,37,0,0,0,233.12,127.51Zm-.67-20.37h-6.32v6.32H209.52v-6.32h-5.16v-3.36h5.16v-2.54h3.7v2.54h9.15v-2.54h3.76v2.54h6.32Zm-9.09,12.16H212a15.7,15.7,0,0,0,5.33,4.74A21.71,21.71,0,0,0,223.36,119.3Zm-1-9.15v-3h-9.15v3Z"/><path class="cls-3" d="M276.48,127.87l-1.3,3.3a66.1,66.1,0,0,1-18-2.44,60.33,60.33,0,0,1-18,2.5l-1.24-3.4a54.45,54.45,0,0,0,14.15-1.18,26.91,26.91,0,0,1-4.91-3.21l3.11-1.89a26.87,26.87,0,0,0,6.78,3.82,23.71,23.71,0,0,0,7.14-4.77H248.57a42,42,0,0,1-7.41,4.2l-2.1-2.71a30.31,30.31,0,0,0,10.67-6.87l3.53,1.32a2.66,2.66,0,0,1-.94,1H275v3.06h-6.36q-1.89,3-6.84,5.92A71.17,71.17,0,0,0,276.48,127.87Zm-33.32-17.2a22.51,22.51,0,0,1-2.37,6.13l-2.67-1.62a21.09,21.09,0,0,0,2.14-5.33Zm8.67-2.54-2.79.69a5.8,5.8,0,0,0-.25-.86q-5.29.86-9,1.11l-.82-2.54a19,19,0,0,0,5-4.09q-2.73.27-4.39.27l-.53-2.58a17.29,17.29,0,0,0,5.33-7.1l3.44.94a26.44,26.44,0,0,1-4.26,5.59q1,0,3-.29A14.57,14.57,0,0,0,248,97.21l2.83,1.49a36.83,36.83,0,0,1-6.45,7.1q1.85-.21,3.53-.5a4.69,4.69,0,0,0-.52-1.26l2.79-.82A27.1,27.1,0,0,1,251.83,108.13Zm-4.47,7.26-2.92.69a32,32,0,0,0-.61-5.5l2.71-.52A29.31,29.31,0,0,1,247.36,115.4Zm4.3-1.47-2.71.94a24.58,24.58,0,0,0-1.32-4.72l2.67-.69A18.77,18.77,0,0,1,251.66,113.93Zm11.23-15.6H251.66V95.41h3.65a10.21,10.21,0,0,0-.61-1.64l3.67-.61q.76,2,.84,2.25h3.67Zm-1.18,16.82h-9v-7.33h9Zm0-12.79h-9V99.84h9Zm0,4h-9v-2.54h9Zm-3,6.15v-2.12h-2.92v2.12Zm8.13-1.72a29.69,29.69,0,0,1-1.51,5.54l-2.83-1a29.06,29.06,0,0,0,1.55-5.42Zm9.24-3-2.79,1q-.13-.4-.38-1a74,74,0,0,1-9.43,1.22l-.94-2.54a16.27,16.27,0,0,0,5.38-4.05,38.42,38.42,0,0,1-4.3.32l-.63-2.67q3.07-1.93,5.29-7.05l3.21,1a19.66,19.66,0,0,1-4,5.63,21.81,21.81,0,0,0,3-.29q.69-1,1.43-2.25l2.92,1.43a30.58,30.58,0,0,1-6.32,7.18,25.45,25.45,0,0,0,3.32-.42,8.14,8.14,0,0,0-.65-1.51l2.88-.82A28.69,28.69,0,0,1,276.12,107.77Zm-4.89,8-2.92.23a23.06,23.06,0,0,0-.44-5.46l2.79-.27A22.13,22.13,0,0,1,271.23,115.82Zm5.08-.94-2.9.69a24.32,24.32,0,0,0-1.58-5.12l2.71-.82A31.27,31.27,0,0,1,276.31,114.87Z"/><path class="cls-3" d="M302.28,103.49H294v2.44h7.41v12.64H294V121h7.41v3H294v2.73a71.86,71.86,0,0,0,7.62-1.09l.17,3.07q-9.3,1.55-19.69,2.58l-.78-3.11,9.24-.94V124H283v-3h7.52v-2.42H283V105.93h7.52v-2.44h-8.63v-3.15h8.63V97.89q-2.79.36-6.74.57l-.95-3a107.94,107.94,0,0,0,17.49-2l1.47,2.75q-3.07.71-7.83,1.34v2.83h8.31Zm-11.76,7.39v-2.21h-4v2.21Zm0,4.85v-2.18h-4v2.18Zm7.37-4.81v-2.25H294v2.25Zm0,4.81v-2.18H294v2.18Zm20.28-14.15q0,9-.4,17.31a72.88,72.88,0,0,1-.73,9.63,3.46,3.46,0,0,1-1.45,2,6.51,6.51,0,0,1-3.46.7q-1.11,0-2.29-.11l-1.07-3.65q1.64.13,2.6.13,1.87,0,2.18-.47t.76-7.68q.44-7.21.29-14.29h-3.7q-.11,15.69-5.73,26.16l-3.32-1.64q5.73-10.33,5.31-24.52h-3.74v-3.57h3.82q.11-5.29,0-7.85H311q0,4.05-.13,7.85Z"/></svg>