<svg id="圖層_1" data-name="圖層 1" xmlns="http://www.w3.org/2000/svg" viewBox="0 0 390.53 253.18"><defs><style>.cls-1,.cls-4{fill:#942323;}.cls-1{stroke:#942323;}.cls-1,.cls-3{stroke-miterlimit:10;}.cls-1,.cls-2,.cls-3{fill-rule:evenodd;}.cls-2,.cls-3{fill:#fff;}.cls-3{stroke:#fff;}</style></defs><title>網站</title><path class="cls-1" d="M377.6,143H117.21a51.77,51.77,0,1,0-4,9H377.6a4.48,4.48,0,1,0,0-9Z"/><path class="cls-2" d="M52.66,158.51a1.21,1.21,0,0,0,.9.22,2.12,2.12,0,0,0,2-1.23L68.7,129.75l9.75,11.75a2.46,2.46,0,0,0,2,.78,2.34,2.34,0,0,0,1.79-1.23l12.56-26.74a2.24,2.24,0,0,0-1-3,2.2,2.2,0,0,0-3,1.12L79.69,136l-9.87-11.86a2.16,2.16,0,0,0-3.7.56L51.54,155.6a2.13,2.13,0,0,0,1.12,2.91Z"/><path class="cls-3" d="M55.38,124.57a1.2,1.2,0,0,1-.59-1.59l7.73-17-.9.45a1.2,1.2,0,0,1-1.08-2.14l3.92-2a1.22,1.22,0,0,1,.69-.14,1.26,1.26,0,0,1,1,.81h0s0,.06,0,.09l1.05,4.29a1.2,1.2,0,1,1-2.32.59l-.25-1L57,124a1.19,1.19,0,0,1-1.58.59Z"/><path class="cls-4" d="M193.94,131.26l-2.39,3.21a36.21,36.21,0,0,1-14.68-14.53v16.54h-4V119.9a40,40,0,0,1-14.68,14.32L155.73,131a36.43,36.43,0,0,0,14-13.1H156.64V114h16.25v-6.7H158.17v-3.74h14.72v-4.7h4v4.7h14.76v3.74H176.88V114H193v3.84H179.94Q183.76,125.51,193.94,131.26Z"/><path class="cls-4" d="M237.26,131.55,235,134.64A43.32,43.32,0,0,1,220,122v14.68h-3.91V121.92a42.24,42.24,0,0,1-14.89,12.77l-2.39-3.09a41.11,41.11,0,0,0,17.28-15.47v-9.38H199.93V103h16.13V98.95H220V103h16v3.74H220v9.76Q225.84,125.7,237.26,131.55ZM213,118.39l-2.75,2.75a32.91,32.91,0,0,0-3.28-5.46,38.35,38.35,0,0,1-4.81,6.49l-2.94-2.39q4.39-4.22,7.27-12l3.61.82a20.05,20.05,0,0,1-1.49,3.65A51.24,51.24,0,0,1,213,118.39Zm23,.78-2.67,2.67a37.41,37.41,0,0,0-4.68-6,24.26,24.26,0,0,1-3.49,4.91l-2.54-2.67q3.21-3.4,5.38-10.14l3.57.59a23.24,23.24,0,0,1-1.32,4A48.51,48.51,0,0,1,236,119.17Z"/><path class="cls-4" d="M280.18,133l-1,3.28q-18.73,0-23.9-1.25a15,15,0,0,1-8.77-6.31,51.71,51.71,0,0,1-1.85,8.55l-2.88-2.75a71.13,71.13,0,0,0,2-16.63l3.28,0-.15,5.71a14.6,14.6,0,0,0,2,2.92V115.3h-6.51v-3.49h6.51v-4.77h-5.56v-3.44h5.56V99.09h3.7v4.51h3.57v3.44h-3.57v4.77h4.68v3.49h-4.72v4.77h3.78v3.61h-3.78v6.53q2.48,1.93,9.82,2.34T280.18,133ZM278.75,117q-.23,11.25-1.28,13t-4.14,1.77l-2.54-.06-1.28-3.36q1,.08,2.25.08a4.67,4.67,0,0,0,2.45-.35q.35-.35.66-3.31a48.63,48.63,0,0,0,.31-5h-12a23.54,23.54,0,0,1-2.37,1.89h2v2.54H265q.17-3.28.17-3.57l3.21,0a23.57,23.57,0,0,1-.21,3.53h2.37v-2.5h3V127h-5.75q-1.78,4.49-7.66,5l-1.6-2.88q3.86-.19,5.42-2.1h-4.16v-4.51a7.25,7.25,0,0,1-1.26.67l-1.66-2.79a23.44,23.44,0,0,0,5.67-4.47q-1.18.36-1.72.48l-1.55-2.79q4.16-.61,5.29-2.54H260.4v-3.95l-1.64,1.28-1.72-3a22.15,22.15,0,0,0,5.84-6.55L266,100q-.23.42-.86,1.49H278.5a84.91,84.91,0,0,1-.43,8.49,12.94,12.94,0,0,1-.85,4,3,3,0,0,1-1.81,1.26,12.38,12.38,0,0,1-4,.32l-.9-3,2.79,0q1,0,1.2-1.75t.44-6.39H263.15q-.71.76-1.85,1.91h2.14v2.23h1.93q.13-1.83.17-3.13h3.06q-.06,1.34-.19,3.13h1.83v-2.23h3V111H268a7.64,7.64,0,0,1-3.53,3.86l2.21.86q-.55.86-.86,1.3Z"/><path class="cls-4" d="M303.94,108.12h-3.32v1.16q0,.78.82.78h2.16v2.88h-3.15q-3.13,0-3.13-3v-1.85h-3.7a6.83,6.83,0,0,1-2.52,3.86,9.82,9.82,0,0,1-4.66,2.1l-1.6-2.75q4.39-1,5.38-3.21h-5v-2.67h8v-1.93H287v-2.71h6.15V98.95h3.57v1.87H303v2.71h-6.19v1.93h7.18Zm.08,13.42q-8.36.78-17.93,1.32l-.5-3q4.11,0,7.6-.21v-2.16h-6v-2.83h6v-2.5h3.65v2.5H303v2.83h-6.11v1.89q3.46-.19,7.14-.59Zm15.71,3.3a48.16,48.16,0,0,1-.79,6.4,7.41,7.41,0,0,1-1.52,3.52,5,5,0,0,1-2.21,1.44,18.89,18.89,0,0,1-4.55.36q-1.13,0-2-.06L307.43,133q1.64.13,3.11.13a12.94,12.94,0,0,0,3.29-.24,2.08,2.08,0,0,0,1.09-1.06,12.79,12.79,0,0,0,.72-3.76H304.11q-4.07,7.68-16.54,8.9l-1.72-3.48q11.19-.9,14-5.42H288.18v-3.19h13.14a7.67,7.67,0,0,0,.61-2.1l3.74.08a11.89,11.89,0,0,1-.38,2Zm3.4-9.07q-.65,7-3.76,7-1.58,0-2.7-2.31t-1.12-11.15q0-1.51,0-2.73h-3a41.45,41.45,0,0,1-.86,6.8,44,44,0,0,1,2.88,3.57l-2.46,2.88a25.53,25.53,0,0,0-1.64-2.46,21.37,21.37,0,0,1-3.17,5.21L304.8,120a17.75,17.75,0,0,0,3.19-5.5,24.94,24.94,0,0,0-3.15-3l2.06-2.73a20.3,20.3,0,0,1,1.87,1.64,38,38,0,0,0,.38-3.86h-4.09v-3.4h4.09a41.5,41.5,0,0,0,.08-4.3l3.4.08q.06,2.46,0,4.22h6.57q-.13,3.36-.13,11.65a16.64,16.64,0,0,0,.16,2.68q.16.89.28.89t.4-1.08a14.92,14.92,0,0,0,.4-3Z"/></svg>