<svg id="圖層_1" data-name="圖層 1" xmlns="http://www.w3.org/2000/svg" viewBox="0 0 390.53 253.18"><defs><style>.cls-1,.cls-3{fill:#942323;}.cls-1{stroke:#942323;stroke-miterlimit:10;}.cls-1,.cls-2{fill-rule:evenodd;}.cls-2{fill:#fff;}</style></defs><title>網站</title><path class="cls-1" d="M377.43,111.74H117a51.77,51.77,0,1,0-4,9H377.43a4.48,4.48,0,1,0,0-9Z"/><path class="cls-2" d="M60.24,87a1.56,1.56,0,1,1,0,3.12c-3,0-5.16,2.08-6.18,4.9a13.52,13.52,0,0,0,.2,9.07,1.56,1.56,0,0,1-2.94,1.07A16.64,16.64,0,0,1,51.12,94c1.67-4.6,5.27-7,9.13-7Zm-1.35-3a12.15,12.15,0,0,0-2.84.66,13.32,13.32,0,0,0-7.87,8.28,19.53,19.53,0,0,0,.21,13.34c2.69,7.39,9,12.35,15.59,12.35a12.3,12.3,0,0,0,3.54-.51,1.51,1.51,0,0,1,.9,0,12.35,12.35,0,0,0,3.55.51c6.63,0,12.9-5,15.59-12.35a19.53,19.53,0,0,0,.21-13.34,12.82,12.82,0,0,0-19-7.1,1.59,1.59,0,0,1-1.53,0A14,14,0,0,0,58.89,84ZM74.21,73.86a1.56,1.56,0,1,1,0,3.12,4.67,4.67,0,0,0-4.68,4.66V82A16,16,0,0,1,81,81.72a16.39,16.39,0,0,1,9.74,10.14,22.62,22.62,0,0,1-.21,15.47C87.36,116,79.91,121.74,72,121.74a15.35,15.35,0,0,1-4-.53,15.26,15.26,0,0,1-4,.53c-7.94,0-15.38-5.79-18.53-14.41a22.66,22.66,0,0,1-.21-15.47A16.39,16.39,0,0,1,55,81.72,16,16,0,0,1,66.41,82v-.34a7.8,7.8,0,0,1,7.8-7.78Z"/><path class="cls-3" d="M170.05,70.56l-4.87,7.83v4.51a35.52,35.52,0,0,0,4.05-1.81v4.12a40,40,0,0,1-4.05,1.93v13.08a3,3,0,0,1-1,2.33,3.87,3.87,0,0,1-2.65.88q-2.81,0-3.9-.08l-1.28-3.7q1.49.11,3,.1a3.76,3.76,0,0,0,1.77-.26,1,1,0,0,0,.39-.91v-9.8q-3.32,1.24-4.93,1.81L155.69,87q3.34-1.2,5.79-2.35V77.74q3.06-4.6,4.56-7.18h-9.62V67h13.63Zm23.35,30.53L190.94,104a54.3,54.3,0,0,0-9.24-7.05,43.85,43.85,0,0,1-12.35,6.53l-2.41-3.13a40.85,40.85,0,0,0,13.47-6.88,36.42,36.42,0,0,0,9.08-11.75l3.09,1.72a44.08,44.08,0,0,1-8,11A59.5,59.5,0,0,1,193.4,101.09Zm0-27.23H182.08a40.94,40.94,0,0,1-5.79,7.54q2.39-.23,6.78-1a42.46,42.46,0,0,0,2.67-4.6l3.11,1.62q-5.06,11.28-17.51,17.76l-2.18-3a41.09,41.09,0,0,0,11-8.17q-3.32.57-8.65,1.16l-.95-2.79a29.89,29.89,0,0,0,7.22-8.57h-6.87V70.25h8.94a23.73,23.73,0,0,0-2.12-3.38l3.93-1.22a22.58,22.58,0,0,1,2.5,4.6h9.28Z"/><path class="cls-3" d="M236.57,86.29H219.94V99.54a3.45,3.45,0,0,1-.81,2.3,3.57,3.57,0,0,1-1.79,1.22,19.7,19.7,0,0,1-4.07.26q-1.57,0-3.13-.08L209,99.49q2.54.19,3.95.19a6.87,6.87,0,0,0,2.49-.27A1.13,1.13,0,0,0,216,98.3v-12H199.24V82.55H216V77.3a59.51,59.51,0,0,0,9.76-6.78H204.15V66.74h27.74v3.78a82.32,82.32,0,0,1-11.95,9v3h16.63Z"/><path class="cls-3" d="M251,66.3q-.59,2.67-1.3,5.4L249,74.26v29.06h-3.65V83.54q-.61,1.15-1.64,2.83l-2.14-3.86q3.76-6.42,5.92-17.15Zm28.76,33.15-1.11,3.86q-12.05,0-16-1.07a12.9,12.9,0,0,1-6.39-3.78,35.07,35.07,0,0,1-3.65,5.08l-3.19-2.41a23.87,23.87,0,0,0,4.3-5.71,34.29,34.29,0,0,1-3.3-6.93l3.09-1.93a20.75,20.75,0,0,0,1.85,4.72,30.48,30.48,0,0,0,1-7.1h-4.72v-3q1.93-3.7,4.09-9h-4.39V68.84h8.38V72.2q-1.37,3.53-3.74,8.5H260a42.41,42.41,0,0,1-2.06,14.45,11.71,11.71,0,0,0,3.89,3,13.84,13.84,0,0,0,5.3,1.22q3.09.16,7.14.16Q277.24,99.56,279.78,99.45ZM279.48,78H276.9v5.75h-6.32v2.81h7.87v3.17h-7.87v2.46h8.9v3.09h-8.9v3.19H267V95.23h-6.89V92.15H267V89.69h-6V86.52h6V83.71h-5.12v-3H267V78h-6.7V74.82H267V72.49h-5v-3h5V66h3.57v3.44h6.32v5.38h2.58Zm-6.15-3.13V72.49h-2.75v2.33Zm0,5.88V78h-2.71V80.7Z"/><path class="cls-3" d="M322.48,82.91h-3.86v5.33H307.87v11a3.77,3.77,0,0,1-1.2,3.17,6.38,6.38,0,0,1-3.86.92q-1.05,0-2.35-.06l-1.07-3.49q1.43.06,2.29.06a5.35,5.35,0,0,0,2-.21.86.86,0,0,0,.35-.8V88.24h-9.74v-3H304V82.91H291.66q0,9-1.06,13.46a24.12,24.12,0,0,1-2.74,7l-3-2.23q3-5.54,3-17.47V68.76H303a16.38,16.38,0,0,0-1-2.08l3.78-1.32a21.34,21.34,0,0,1,1.51,3.4h14.84v3.4H307.87v2.44h10.75V80h3.86Zm-20.22,15a68.37,68.37,0,0,1-9.45,4.6l-1.93-3a59.51,59.51,0,0,0,9.45-4.43ZM304,80V77.78h-9.74V74.59H304V72.16H291.66V80Zm-1.89,11.7L300,94.6A61.29,61.29,0,0,0,292.82,92L295,89.08A54.48,54.48,0,0,1,302.14,91.66ZM314.88,80V77.78h-7V80Zm0,5.25V82.91h-7v2.31Zm5.1,6.57a32.11,32.11,0,0,1-8.33,2.81l-2-3.11A40.27,40.27,0,0,0,318,88.91Zm1.47,8.48L319,102.85A53.45,53.45,0,0,0,309.67,98l2.1-2.83A52.42,52.42,0,0,1,321.45,100.27Z"/></svg>