<svg id="圖層_1" data-name="圖層 1" xmlns="http://www.w3.org/2000/svg" viewBox="0 0 390.53 253.18"><defs><style>.cls-1,.cls-3{fill:#942323;}.cls-1{stroke:#942323;}.cls-1,.cls-2{stroke-miterlimit:10;fill-rule:evenodd;}.cls-2{fill:#fff;stroke:#fff;}</style></defs><title>網站</title><path class="cls-1" d="M375.77,130.35H115.39a51.77,51.77,0,1,0-4,9H375.77a4.48,4.48,0,1,0,0-9Z"/><path class="cls-2" d="M64.09,104.8h4.48v17.56H64.09V104.8Zm0-6.9h4.48v4.45H64.09V97.91Zm2.22-4.86a17.45,17.45,0,1,0,17.45,17.44A17.45,17.45,0,0,0,66.31,93.05Zm0-2.8a20.24,20.24,0,0,1,1.4,40.43V143.3H64.92V130.69a20.24,20.24,0,0,1,1.39-40.43Z"/><path class="cls-3" d="M191.87,93.58H179.52q-1.85,1.34-5.92,3.74h15.94v3.4H171.8l-1,3.53h19a51.26,51.26,0,0,1-.71,5.49q-.65,3.9-1.89,5a5.36,5.36,0,0,1-2.29,1.38,39.89,39.89,0,0,1-5.94.24q-3.61,0-7.92-.19l-1.15-3.53q3.82.27,12.77.27a2.08,2.08,0,0,0,1.74-.75q.59-.74,1.13-4.54H165.77l2.1-7.45q-7.05,3.23-11.82,5l-2-3.23A102.66,102.66,0,0,0,173,93.58H154.5V90.14h14.19v-4H157.9V82.67h10.79V79.06h3.93v3.61H182v3.44h-9.41v4h5.67A66.73,66.73,0,0,0,188.7,79.83l3,2a62.9,62.9,0,0,1-7.79,8.29h8Z"/><path class="cls-3" d="M211.14,86.32h-13.9V82.88h5.25a24.31,24.31,0,0,0-1.43-3.19l3.88-.9a31.19,31.19,0,0,1,1.76,4.09h4.43Zm-.78,6.49H198.23v-3.4h12.14Zm0,6.11H198.23v-3.4h12.14Zm.08,16.9h-3.82v-2h-4.26v2.86h-3.88v-14.8h12Zm-3.82-5.42v-5.08h-4.26v5.08Zm17.57-.65A90.66,90.66,0,0,1,212,114.43l-.53-3.65a29,29,0,0,0,4.18-1.32V97.41h-3.8V94h10.9v3.44h-3.4V108q1.51-.59,4.51-2Zm11.11-1.85a20.31,20.31,0,0,1-1.48,6.34q-1.1,2.44-3,2.44-3.51,0-4.91-7.08a119.22,119.22,0,0,1-1.64-19.92H212.13V86.11h12l0-7.18h3.65q0,5.12.13,7.18h6.84v3.57h-6.76a140.2,140.2,0,0,0,1.42,17.64q1,5.21,1.42,5.21.17,0,.59-1.38a26.69,26.69,0,0,0,.71-4.84Zm-1-24.5-2.65,1.85a30.39,30.39,0,0,0-3.32-4.14L231,79.35A23.59,23.59,0,0,1,234.34,83.4Z"/><path class="cls-3" d="M278.2,92l-1.8,3.44a28,28,0,0,1-3.74-1.07v16.17H254.52l1.85,2.14a55.71,55.71,0,0,1-14.32,4.14l-1.85-3.44a50.49,50.49,0,0,0,11.74-2.83h-6.32V94.28h8.13l-1.64-2.37q7.54-1.91,11.23-6.7l3.91.86a6.8,6.8,0,0,1-.95,1.45A34.87,34.87,0,0,0,278.2,92Zm-25.15-1.2H240.54V87.27h12.51Zm-.38-6.84H241.11V80.5h11.57ZM268.8,98.83V97.32H249.63v1.51Zm0,4.39v-1.6H249.63v1.6Zm0,4.47V106H249.63v1.68Zm8.65-23.26a49.42,49.42,0,0,1-3.76,4.81l-3.25-1.93q.54-.63,2.31-2.88H259.2a34.23,34.23,0,0,1-3.78,3.78l-2.92-2.5a25.7,25.7,0,0,0,6.4-7.31l3.53,1.2a4.05,4.05,0,0,1-.82,1.51h15.83Zm-5.21,9.85a33.9,33.9,0,0,1-8.4-4.14,22.75,22.75,0,0,1-7,4.14ZM278,113.66,275.9,117a66.79,66.79,0,0,0-12.6-2.62l2-3.23A55.23,55.23,0,0,1,278,113.66Z"/><path class="cls-3" d="M297.35,86H283.41V82.54h5.5a14.65,14.65,0,0,0-1.37-2.67l3.78-1.43a36.09,36.09,0,0,1,1.89,4.09h4.14Zm-.94,6.38h-12V88.95h12Zm0,6.28h-12v-3.4h12Zm0,16.75h-3.78v-1.93h-4.51v3h-3.72V101.54h12ZM292.67,110v-4.85h-4.51V110Zm28.68-3.57a29,29,0,0,1-1.17,6.12,8.33,8.33,0,0,1-1.68,3.47,2.77,2.77,0,0,1-1.86.69,3,3,0,0,1-2.21-1q-.93-1-1.79-5.76a49.76,49.76,0,0,1-.85-8.61V83.4H306V95h4.62v3.72H306v17.78h-3.7V98.71h-4V95h4V83.4H298.8V79.79h16.69v22.4a33.71,33.71,0,0,0,1.39,9.66,36.69,36.69,0,0,0,1-7.56Z"/></svg>