<svg id="圖層_1" data-name="圖層 1" xmlns="http://www.w3.org/2000/svg" viewBox="0 0 390.53 253.18"><defs><style>.cls-1{opacity:0.43;}.cls-2{fill:#942323;}.cls-3{opacity:0.75;}.cls-4{fill:#1e556d;}</style></defs><title>網站</title><g class="cls-1"><circle class="cls-2" cx="332.62" cy="171.08" r="29.96" transform="translate(64.86 432.24) rotate(-71.5)"/></g><g class="cls-3"><circle class="cls-4" cx="297.56" cy="166.7" r="17.46"/></g><g class="cls-3"><path class="cls-4" d="M104.36,153.84A44.85,44.85,0,1,1,151,109h-7.47a37.37,37.37,0,1,0-38.85,37.34Z"/></g><path class="cls-2" d="M169.41,169.82l-3.1,4.44q-10.57-5.93-15.67-12.48.09,1.25.09,2.86,0,7-2,9.58t-7.83,2.58q-1.52,0-4-.09l-1.79-5.18q4.2.15,6,.15A4.71,4.71,0,0,0,144,171a4.27,4.27,0,0,0,1.09-1.53q.39-.91.39-5.58,0-1.49-.06-2.77a68.19,68.19,0,0,1-27.58,13.79l-2.38-4.59a61.42,61.42,0,0,0,29.1-14.68,16,16,0,0,0-1.28-3.19,60.23,60.23,0,0,1-25,11.35L116,159.4a59.12,59.12,0,0,0,25-10.69q-.18-.24-2.08-2.29a67.41,67.41,0,0,1-19.51,6.34L117,148.11A58.94,58.94,0,0,0,139.89,141h-14.8v-4.74h34.46V141H147a18.44,18.44,0,0,1-3.72,2.8,26.67,26.67,0,0,1,5.48,8.67,47.31,47.31,0,0,0,12-8.79l3.84,3.43a55.81,55.81,0,0,1-12.75,9Q157.58,163.78,169.41,169.82Zm-2-30.86h-5.3v-6.23H122.53V139h-5.39V127.91h22a22.35,22.35,0,0,0-2.32-3.6l5.78-1.16q1.46,2.29,2.74,4.77h22.1Z"/><path class="cls-2" d="M229.87,154.45H189.48V169.7a93,93,0,0,0,12.75-3.84l.39,5.48a172.77,172.77,0,0,1-18.5,5.3l-1.52-4.5a2.47,2.47,0,0,0,1.34-2.2V154.45H176.8v-5.06h8.49V124.55h41v4.88H190.89V133h32.17v4.71H190.89v3.6h32.17v4.5H190.89v3.6h39Zm.48,17.45L227.73,177q-11-2.59-17.13-6.67a43.48,43.48,0,0,1-11.53-11.88l4.77-2.62a44.54,44.54,0,0,0,6.13,7.63,53.85,53.85,0,0,0,10.93-7.74l4.14,3.54a63.37,63.37,0,0,1-10.43,7.42Q220.16,170.06,230.35,171.91Z"/><path class="cls-2" d="M291,165.8H279V171a6,6,0,0,1-1.37,4q-1.37,1.64-5.75,1.64-1.85,0-5.63-.15l-1.4-4.83q6.11.09,7.4-.06t1.3-1.34V165.8H237.8v-4.41h35.74v-1.88H279v1.88h12Zm-.6-7.86-4.53,2.62a38.33,38.33,0,0,0-2.56-3Q257.6,159,240.6,158.77l-1.4-4.32q4.41.09,10.19.09,7.66,0,12.33-.15v-3.25H243.1V133.51h18.62v-2.86H238.54v-4.2h23.17v-3H267v3h22.82v4.2H267v2.86h18.85v17.63h-1.58Q287.69,154.66,290.4,157.94Zm-28.62,14.21-4.08,3.78a63.8,63.8,0,0,0-9.47-5.51l4.05-3.78A56.59,56.59,0,0,1,261.77,172.15Zm-.06-31.6v-3H248.43v3Zm0,6.4v-2.74H248.43v2.74Zm18.85-6.4v-3H267v3Zm0,6.4v-2.74H267v2.74Zm.12,4.2H267v3.07q8.4-.27,12.39-.75a9,9,0,0,0-1.16-1.22Z"/><path class="cls-2" d="M315.21,149.45l-3.34,3.48a34.56,34.56,0,0,0-1.28-4v27.91h-5.27V150.61a42.56,42.56,0,0,1-4.56,11.11L298,155.62a53,53,0,0,0,6.64-16.71H298.8v-5.12h6.52V123.54h5.27v10.25h3.51v5.12h-3.51v1.16A63.27,63.27,0,0,1,315.21,149.45Zm16.47-8.31H320.51v35.68h-5V124.25h16.17Zm-4.95-10.37v-2.38h-6.22v2.38Zm0,6.22v-2.56h-6.22V137Zm17.93,31.07-2.29,3.28a38.7,38.7,0,0,0-7-4.08v8.22H331V168.3a25.87,25.87,0,0,1-6.91,5.54l-2.68-3.72a26.45,26.45,0,0,0,8.79-6.94H323V150.61h8v-2.26H322.6v-4H331v-2.09h4.32v2.09h8.49v4h-8.49v2.26h8v12.57H335.7A48.46,48.46,0,0,1,344.67,168.07ZM331,159.75v-5.81H326.8v5.81Zm-.74-1.46-1.88.6a10.25,10.25,0,0,0-1-3.4l1.94-.63A12.45,12.45,0,0,1,330.28,158.3ZM350.71,172a4.72,4.72,0,0,1-1.38,3.69q-1.39,1.25-5.76,1.25-1,0-2.29-.06l-1.73-5q1.43.15,3.78.15a3.82,3.82,0,0,0,2.06-.37,1.47,1.47,0,0,0,.51-1.27V141.14H334.6V124.25h16.11Zm-11.17-12.27v-5.81h-4.2v5.81Zm-.71-4.26a15.19,15.19,0,0,1-1,3.51l-1.76-.54a21,21,0,0,0,.83-3.6Zm7.06-24.72v-2.38h-6.34v2.38Zm0,6.22v-2.56h-6.34V137Z"/><path class="cls-2" d="M93.93,118.85H88.15a2.24,2.24,0,0,1-2.23-2.23V86.36a2.24,2.24,0,0,1,2.23-2.23h24.66A2.24,2.24,0,0,1,115,86.36v3.16h-1.2V86.36a1,1,0,0,0-1-1H88.15a1,1,0,0,0-1,1v30.26a1,1,0,0,0,1,1h5.78Z"/><path class="cls-2" d="M94.13,119.05h-6a2.44,2.44,0,0,1-2.44-2.44V86.36a2.44,2.44,0,0,1,2.44-2.44h24.66a2.44,2.44,0,0,1,2.44,2.44v3.36h-1.6V86.36a.83.83,0,0,0-.83-.83H88.15a.83.83,0,0,0-.83.83v30.26a.83.83,0,0,0,.83.83h6Zm-6-34.73a2,2,0,0,0-2,2v30.26a2,2,0,0,0,2,2h5.58v-.79H88.15a1.24,1.24,0,0,1-1.24-1.24V86.36a1.24,1.24,0,0,1,1.24-1.24h24.66A1.24,1.24,0,0,1,114,86.36v3h.79v-3a2,2,0,0,0-2-2Z"/><path class="cls-2" d="M113,123.9H95.34a2.56,2.56,0,0,1-2.56-2.56V92.63a2.56,2.56,0,0,1,2.56-2.56h22.42a2.56,2.56,0,0,1,2.56,2.56V116.8a2.57,2.57,0,0,1-.8,1.86l-4.81,4.54A2.55,2.55,0,0,1,113,123.9ZM95.34,91.27A1.36,1.36,0,0,0,94,92.63v28.71a1.36,1.36,0,0,0,1.36,1.36H113a1.36,1.36,0,0,0,.94-.37l4.81-4.54a1.37,1.37,0,0,0,.43-1V92.63a1.36,1.36,0,0,0-1.36-1.36Z"/><path class="cls-2" d="M113,124.1H95.34a2.76,2.76,0,0,1-2.76-2.76V92.63a2.77,2.77,0,0,1,2.76-2.76h22.42a2.77,2.77,0,0,1,2.76,2.76V116.8a2.77,2.77,0,0,1-.86,2l-4.81,4.54A2.75,2.75,0,0,1,113,124.1ZM95.34,90.27A2.36,2.36,0,0,0,93,92.63v28.71a2.36,2.36,0,0,0,2.36,2.36H113a2.35,2.35,0,0,0,1.62-.64l4.81-4.54a2.37,2.37,0,0,0,.74-1.71V92.63a2.36,2.36,0,0,0-2.36-2.36ZM113,122.91H95.34a1.57,1.57,0,0,1-1.56-1.56V92.63a1.57,1.57,0,0,1,1.56-1.56h22.42a1.57,1.57,0,0,1,1.56,1.56V116.8a1.57,1.57,0,0,1-.49,1.14L114,122.48A1.56,1.56,0,0,1,113,122.91ZM95.34,91.47a1.16,1.16,0,0,0-1.16,1.16v28.71a1.16,1.16,0,0,0,1.16,1.16H113a1.16,1.16,0,0,0,.8-.32l4.81-4.54a1.16,1.16,0,0,0,.36-.84V92.63a1.16,1.16,0,0,0-1.16-1.16Z"/><path class="cls-2" d="M114,117.57l-.26,5.73,6-5.66-4.87-.77A.74.74,0,0,0,114,117.57Z"/><rect class="cls-2" x="96.98" y="96.05" width="18.76" height="0.4"/><path class="cls-2" d="M115.74,96.76H97a.5.5,0,0,1,0-1h18.76a.5.5,0,0,1,0,1Z"/><path class="cls-2" d="M115.74,97H97a.7.7,0,1,1,0-1.4h18.76a.7.7,0,0,1,0,1.4ZM97,96a.3.3,0,1,0,0,.59h18.76a.3.3,0,0,0,0-.59Z"/><rect class="cls-2" x="96.98" y="99.25" width="18.76" height="0.4"/><path class="cls-2" d="M115.74,99.95H97a.5.5,0,0,1,0-1h18.76a.5.5,0,0,1,0,1Z"/><path class="cls-2" d="M115.74,100.15H97a.7.7,0,1,1,0-1.4h18.76a.7.7,0,0,1,0,1.4ZM97,99.15a.3.3,0,1,0,0,.59h18.76a.3.3,0,0,0,0-.59Z"/><rect class="cls-2" x="96.98" y="102.44" width="18.76" height="0.4"/><path class="cls-2" d="M115.74,103.14H97a.5.5,0,0,1,0-1h18.76a.5.5,0,0,1,0,1Z"/><path class="cls-2" d="M115.74,103.34H97a.7.7,0,0,1,0-1.4h18.76a.7.7,0,0,1,0,1.4Zm-18.76-1a.3.3,0,1,0,0,.59h18.76a.3.3,0,0,0,0-.59Z"/><rect class="cls-2" x="96.98" y="105.63" width="18.76" height="0.4"/><path class="cls-2" d="M115.74,106.34H97a.5.5,0,0,1,0-1h18.76a.5.5,0,0,1,0,1Z"/><path class="cls-2" d="M115.74,106.54H97a.7.7,0,0,1,0-1.4h18.76a.7.7,0,0,1,0,1.4Zm-18.76-1a.3.3,0,1,0,0,.59h18.76a.3.3,0,0,0,0-.59Z"/><rect class="cls-2" x="96.98" y="108.83" width="18.76" height="0.4"/><path class="cls-2" d="M115.74,109.53H97a.5.5,0,0,1,0-1h18.76a.5.5,0,0,1,0,1Z"/><path class="cls-2" d="M115.74,109.73H97a.7.7,0,0,1,0-1.4h18.76a.7.7,0,0,1,0,1.4Zm-18.76-1a.3.3,0,1,0,0,.59h18.76a.3.3,0,0,0,0-.59Z"/><rect class="cls-2" x="96.98" y="112.02" width="18.76" height="0.4"/><path class="cls-2" d="M115.74,112.72H97a.5.5,0,0,1,0-1h18.76a.5.5,0,0,1,0,1Z"/><path class="cls-2" d="M115.74,112.92H97a.7.7,0,1,1,0-1.4h18.76a.7.7,0,0,1,0,1.4Zm-18.76-1a.3.3,0,1,0,0,.59h18.76a.3.3,0,0,0,0-.59Z"/><rect class="cls-2" x="96.98" y="115.21" width="12.37" height="0.4"/><path class="cls-2" d="M109.35,115.92H97a.5.5,0,0,1,0-1h12.37a.5.5,0,0,1,0,1Z"/><path class="cls-2" d="M109.35,116.12H97a.7.7,0,1,1,0-1.4h12.37a.7.7,0,1,1,0,1.4Zm-12.37-1a.3.3,0,1,0,0,.59h12.37a.3.3,0,1,0,0-.59Z"/></svg>