<svg id="圖層_1" data-name="圖層 1" xmlns="http://www.w3.org/2000/svg" viewBox="0 0 390.53 253.18"><defs><style>.cls-1,.cls-3{fill:#942323;}.cls-1{stroke:#942323;stroke-miterlimit:10;}.cls-1,.cls-2{fill-rule:evenodd;}.cls-2{fill:#fff;}</style></defs><title>網站</title><path class="cls-1" d="M373,141.6H112.64a51.77,51.77,0,1,0-4,9H373a4.48,4.48,0,1,0,0-9Z"/><path class="cls-2" d="M48.69,138.44l-5.44,5.43a1.55,1.55,0,0,0,0,2.2,1.57,1.57,0,0,0,2.21,0l5.44-5.43-2.21-2.2Zm4.17-4.16-2,1.95,2.21,2.21,2-1.95-2.21-2.21Zm12.9-16.9v6.23H68.9v-1.56a1.56,1.56,0,0,1,3.13,0v1.56h3.13v-6.23Zm4.7-5.6L68,114.26h5l-2.47-2.48Zm0-3.77a1.56,1.56,0,0,1,1.11.46l6.26,6.24a1.57,1.57,0,0,1,.46,1.1v9.36a1.56,1.56,0,0,1-1.56,1.56H64.21a1.56,1.56,0,0,1-1.57-1.56v-9.36a1.6,1.6,0,0,1,.46-1.1h0l6.25-6.24a1.56,1.56,0,0,1,1.11-.46Zm0-3.12a14,14,0,1,0,14.08,14,14.07,14.07,0,0,0-14.08-14Zm0-3.12a17.16,17.16,0,1,1-11,30.35l-2.17,2.16,1.11,1.1a1.56,1.56,0,0,1,0,2.21L47.67,148.28A4.69,4.69,0,0,1,41,141.66L51.76,131A1.56,1.56,0,0,1,54,131l1.11,1.1,2.17-2.16a17.15,17.15,0,0,1,13.22-28.14Z"/><path class="cls-3" d="M158.17,119.67q-1.74,7.45-3.49,10.33l-3.11-2.5a31.28,31.28,0,0,0,3.19-9.07Zm11.74-2.92h-6.8V131.2h-3.7V116.75h-7.58v-3.4h7.58v-3.21H152.8v-3.44h3.34a45.16,45.16,0,0,0-1.72-5.9h-1.72V97.46h6.51a15.71,15.71,0,0,0-1.6-2.86l3.74-1.15a42.38,42.38,0,0,1,1.93,4H169v3.34h-1.09q-1.22,4.41-1.76,5.9H169v3.44h-5.94v3.21h6.8Zm-5.86-16h-5.79q1.51,5,1.66,5.9h2.46A55.22,55.22,0,0,0,164.05,100.79ZM170.29,125l-3.4,1.64a32.21,32.21,0,0,0-2.54-7l3.23-1.41A42.37,42.37,0,0,1,170.29,125ZM189.65,123a30.12,30.12,0,0,1-.54,5.6,3,3,0,0,1-1.23,1.81,6.9,6.9,0,0,1-3.3.54,8.37,8.37,0,0,1-2.44-.24,2.73,2.73,0,0,1-1.25-1,3.22,3.22,0,0,1-.56-2v-8.82H178q-.57,9.18-7.54,12.62l-2.5-2.9q6.51-3.3,6.43-9.72h-2.94V94.79h16.13v24.1h-3.74v7.58q0,.86,1.05.86a1.23,1.23,0,0,0,.82-.26q.31-.26.45-2.18a22.86,22.86,0,0,0,.05-3.1Zm-5.77-21.46V98.25h-8.82v3.28Zm0,6.84v-3.44h-8.82v3.44Zm0,7v-3.53h-8.82v3.53Z"/><path class="cls-3" d="M232.16,114.3H215.54v13.25a3.45,3.45,0,0,1-.81,2.3,3.57,3.57,0,0,1-1.79,1.22,19.7,19.7,0,0,1-4.07.26q-1.57,0-3.13-.08l-1.13-3.74q2.54.19,3.95.19a6.87,6.87,0,0,0,2.49-.27,1.13,1.13,0,0,0,.54-1.11v-12H194.83v-3.74h16.73v-5.25a59.51,59.51,0,0,0,9.76-6.78H199.75V94.75h27.74v3.78a82.32,82.32,0,0,1-11.95,9v3h16.63Z"/><path class="cls-3" d="M255,105.79H242.7v25.53h-3.82V94.48H255Zm-3.8-6.8V97.35h-8.5V99Zm0,4v-1.64h-8.5V103ZM256,117.32l-2.29,1.24q-.29-.48-.57-.86-4.66.69-8.08.9l-.67-2.23a23,23,0,0,0,4.77-3.28q-2.37.34-4,.42l-.69-2.23a11.64,11.64,0,0,0,4.93-4.81l2.75,1a17.86,17.86,0,0,1-3.53,3.44,21.07,21.07,0,0,0,3-.44,18,18,0,0,0,1.37-1.72l2.75,1.11a32.4,32.4,0,0,1-6.61,6,14.13,14.13,0,0,0,2.75-.34,3.18,3.18,0,0,0-.42-.65l2.27-1.16A25.63,25.63,0,0,1,256,117.32Zm-.69,3.48q0,4.2-1.79,6.33T247,130.61l-2-2.94q4.37-.71,5.86-2.67H245.2V119.8h3.34v2.63h3.15a2.18,2.18,0,0,0,.08-.76v-2.5h3.49Zm13.63-3.53-2.54,1.2a4.29,4.29,0,0,0-.55-.95q-2.94.46-8.44,1l-.59-2.18a17.74,17.74,0,0,0,4.37-3.19l-4.12.48-.61-2.29a12.76,12.76,0,0,0,4.47-4.89l2.79.86a18.16,18.16,0,0,1-3.61,3.7q2.41-.31,3.19-.44a9.74,9.74,0,0,0,1.16-1.64l3,.95a28.6,28.6,0,0,1-6.17,6q2.06-.21,3-.38a4.84,4.84,0,0,0-.61-.73l2.58-1.11A19.63,19.63,0,0,1,268.89,117.28Zm-1.11,7.89h-6.63v5.21h-3.57V119.21h3.57v3.32h3.19v-2.67h3.44Zm6.15,2.5a3.52,3.52,0,0,1-.67,2.21,3.48,3.48,0,0,1-1.67,1.21,12.31,12.31,0,0,1-3.47.34,11.64,11.64,0,0,1-1.68-.11L265,127.59q1.09.08,2.44.08a14.93,14.93,0,0,0,2.17-.1q.6-.11.6-1.09V105.79H257.93V94.48h16ZM270.19,99V97.35h-8.44V99Zm0,4v-1.64h-8.44V103Z"/><path class="cls-3" d="M291.69,94.26q-1.18,3.28-2.29,5.9l-1.11,2.44v28.64h-3.65V109.57q-.88,1.26-2.83,3.7l-1.68-3.95a60.71,60.71,0,0,0,7.81-15.92Zm9.15,27.48a47.56,47.56,0,0,1-8.25,8.54L289.32,128a39.18,39.18,0,0,0,8.13-8.12Zm5.25-26.62a55.89,55.89,0,0,1-13.5,9.85L290,102.43a50,50,0,0,0,13-9.07Zm12.28,23.26-3.21,1.85a27.52,27.52,0,0,0-1.72-2.88q-3.42.48-7,.86v9.45a4,4,0,0,1-1,2.65q-1,1.15-5,1.15a11.45,11.45,0,0,1-1.32-.06l-1.47-3.74q4.26,0,4.61,0t.35-.82v-8.25q-4.77.44-11.07.73l-.59-2.92a73.58,73.58,0,0,0,10.48-5.46q-6.36.38-8.84.42l-.69-3q9.78-4.91,15.1-10.79l3.44,1.8a53.3,53.3,0,0,1-11.19,8.5q6.28-.31,7.35-.49t4.79-3.9l3.7,1.72q-5,4.77-15.26,10.37,4.34-.19,11.34-1.09-.82-1.13-2-2.44l3.32-1.64A46.79,46.79,0,0,1,318.37,118.39Zm0,10.06-3.09,2a58.26,58.26,0,0,0-7.22-8.8l3-2.12A52.91,52.91,0,0,1,318.33,128.45Z"/></svg>