<svg id="圖層_1" data-name="圖層 1" xmlns="http://www.w3.org/2000/svg" viewBox="0 0 1140.74 980.28"><defs><style>.cls-1{fill:#e3dfc1;}</style></defs><title>網站</title><path class="cls-1" d="M724.21,241.25A21.24,21.24,0,1,1,745.45,220,21.26,21.26,0,0,1,724.21,241.25Zm0-31A9.74,9.74,0,1,0,734,220,9.75,9.75,0,0,0,724.21,210.27Z"/><path class="cls-1" d="M803.31,251.57H640.68a5.75,5.75,0,0,0,0,11.49h72.48L654.57,373.63A5.75,5.75,0,1,0,664.72,379l58.22-109.87,64,110.07a5.75,5.75,0,1,0,9.94-5.78L732.7,263.06h70.61a5.75,5.75,0,0,0,0-11.49Z"/><path class="cls-1" d="M224.26,388.42a5.75,5.75,0,1,1,0-11.49,6.49,6.49,0,0,0,5-2.36c8.71-9.15,10.63-39.67,9.8-56.77a5.75,5.75,0,1,1,11.48-.56c.25,5,2,49.58-13,65.26A18.09,18.09,0,0,1,224.26,388.42Z"/><path class="cls-1" d="M389.38,378.3c-7.79.37-14.85-2.43-21.5-8.59-24.7-22.85-35.84-83.16-40.76-126.16h46.59a5.75,5.75,0,0,0,0-11.49h-47.8c-2-20.57-2.48-35-2.5-35.45a5.75,5.75,0,1,0-11.49.34c.05,1.75.51,15.6,2.36,35.11h-31.1a41.43,41.43,0,1,0,0,82.87c.18,0,.35,0,.52-.05s.34.05.52.05a29.94,29.94,0,0,1,0,59.88,5.75,5.75,0,0,0,0,11.49,41.43,41.43,0,0,0,0-82.87c-.18,0-.35,0-.52.05s-.34-.05-.52-.05a29.94,29.94,0,1,1,0-59.88h32.29c5,44.71,16.9,109,44.6,134.6,8.38,7.75,17.77,11.68,27.93,11.68.64,0,1.28,0,1.93,0a5.75,5.75,0,0,0-.55-11.48Z"/><path class="cls-1" d="M363.31,315.52a20.63,20.63,0,1,1,20.63-20.63A20.66,20.66,0,0,1,363.31,315.52Zm0-29.77a9.14,9.14,0,1,0,9.14,9.14A9.15,9.15,0,0,0,363.31,285.75Z"/><circle class="cls-1" cx="351.98" cy="218.76" r="16.94"/><path class="cls-1" d="M290.15,474.11A39.23,39.23,0,0,1,251,434.92a5.75,5.75,0,1,1,11.49,0,27.73,27.73,0,0,0,27.7,27.69,5.75,5.75,0,1,1,0,11.49Z"/><path class="cls-1" d="M331.37,474.89a5.75,5.75,0,1,1,0-11.49,27.72,27.72,0,0,0,27.69-27.69,5.75,5.75,0,1,1,11.49,0A39.23,39.23,0,0,1,331.37,474.89Z"/><circle class="cls-1" cx="344.5" cy="529.29" r="16.94"/><path class="cls-1" d="M384.13,528.94a40.14,40.14,0,1,0-68.22,28.64H278.23a27.69,27.69,0,1,1,0-55.39h23.59a5.75,5.75,0,0,0,0-11.49H278.23a39.19,39.19,0,1,0,0,78.38h66.36a39.24,39.24,0,0,0,35.52-22.65A39.89,39.89,0,0,0,384.13,528.94Zm-68.79,0a28.63,28.63,0,0,1,57.25-.81,5.69,5.69,0,0,0-.3,1.76,27.53,27.53,0,0,1-2.15,10.68,28.63,28.63,0,0,1-54.8-11.63Z"/><path class="cls-1" d="M397.3,609.09H317V584.94a5.75,5.75,0,1,0-11.49,0v24.15H256.1a27.73,27.73,0,0,1-27.7-27.69,5.75,5.75,0,1,0-11.49,0,39.23,39.23,0,0,0,39.19,39.19h49.38v22.77a5.75,5.75,0,0,0,11.49,0V620.58H397.3a5.75,5.75,0,1,0,0-11.49Z"/><circle class="cls-1" cx="521.34" cy="528.94" r="22.56"/><path class="cls-1" d="M569,604.93H526.61V585a55.32,55.32,0,0,0,.5-110.09V458h73.1a5.75,5.75,0,0,0,0-11.49h-73.1V421.9a5.77,5.77,0,0,0-11.49,0V446.5H464.85c-14.51,0-26.31-10.84-26.31-24.15a5.75,5.75,0,1,0-11.49,0C427,442,444,458,464.85,458h50.77v16.87a55.31,55.31,0,0,0-.49,110s0,0,0,.07v20H432.79a5.75,5.75,0,0,0,0,11.49h82.33v32.43a5.75,5.75,0,0,0,11.49,0V616.42H569c14.36,0,26.5,9.42,26.5,20.56A5.75,5.75,0,1,0,607,637C607,619.31,589.91,604.93,569,604.93Zm-91.9-75a44.28,44.28,0,1,1,13,31.31A44,44,0,0,1,477.06,529.89Z"/><circle class="cls-1" cx="678.26" cy="538.94" r="16.94"/><path class="cls-1" d="M672.45,490.4a24,24,0,0,1-17.05-7,5.75,5.75,0,0,1,8.13-8.13,12.62,12.62,0,1,0,17.85-17.85,5.75,5.75,0,0,1,8.13-8.13,24.1,24.1,0,0,1-17.05,41.15Z"/><path class="cls-1" d="M765.26,490.4a24,24,0,0,1-17.05-7,5.75,5.75,0,1,1,8.13-8.13,12.62,12.62,0,1,0,17.85-17.85,5.75,5.75,0,0,1,8.13-8.13,24.1,24.1,0,0,1-17.05,41.15Z"/><path class="cls-1" d="M709.8,589.79a5.75,5.75,0,0,0-5.75,5.75V606a27.69,27.69,0,1,1-55.39,0V568.32a40.13,40.13,0,1,0,11.14-64.2,39.24,39.24,0,0,0-22.64,35.51V606a39.19,39.19,0,1,0,78.38,0V595.54A5.75,5.75,0,0,0,709.8,589.79ZM706,540.24a28.65,28.65,0,1,1-40.28-26.15,27.53,27.53,0,0,1,10.68-2.15,5.7,5.7,0,0,0,1.76-.3A28.66,28.66,0,0,1,706,540.24Z"/><path class="cls-1" d="M734.78,647.78A5.75,5.75,0,0,1,729,642V542.23c0-22.51,17.35-40.83,38.67-40.83s38.67,18.32,38.67,40.83l-.08,32.94c0,21.59-16.65,39.17-37.13,39.17a5.75,5.75,0,0,1,0-11.49c14.14,0,25.64-12.42,25.64-27.69l.08-32.94c0-16.16-12.19-29.32-27.18-29.32S740.52,526,740.52,542.23V642A5.75,5.75,0,0,1,734.78,647.78Z"/><path class="cls-1" d="M469.94,370.71c-18.52,3.33-36.68-11.21-40.49-32.4s8.15-41.15,26.67-44.48c13.8-2.48,27.74,4.79,35.51,18.52a4,4,0,0,1-.94,5.16,3.18,3.18,0,0,1-4.6-1.31c-6.27-11.08-17.51-16.94-28.64-14.94C442.52,304,432.87,320,435.94,337.14S453.67,366,468.6,363.27c11.34-2,20.1-12.07,21.79-25a3.2,3.2,0,0,1,3.77-3,4,4,0,0,1,2.8,4.42C494.86,355.74,484,368.18,469.94,370.71Z"/><path class="cls-1" d="M547,305a3,3,0,0,1-1.53-.13,4.05,4.05,0,0,1-2.35-4.73q.12-.52.26-1a3.1,3.1,0,0,1,4.13-2.3,4.07,4.07,0,0,1,2.22,4.8c-.07.27-.14.55-.21.83A3.28,3.28,0,0,1,547,305Z"/><path class="cls-1" d="M583.22,350.34c-18.52,3.33-36.68-11.21-40.5-32.4a43.32,43.32,0,0,1,.44-17.81,3.12,3.12,0,0,1,4.06-2.45,4,4,0,0,1,2.35,4.73,34.93,34.93,0,0,0-.35,14.36c3.07,17.1,17.72,28.82,32.66,26.13s24.58-18.78,21.51-35.87A34.91,34.91,0,0,0,598,293.67a4.05,4.05,0,0,1,.55-5.25,3.12,3.12,0,0,1,4.66.87,43.31,43.31,0,0,1,6.64,16.57C613.7,327.06,601.73,347,583.22,350.34Z"/><path class="cls-1" d="M579.25,310.21l-40.06-32.05L549,261.83a4.18,4.18,0,0,0-.95-5.26,3,3,0,0,0-4.6.83L510.3,312.67l-7.53-41.86a3.82,3.82,0,0,0-2.62-3.08,3,3,0,0,0-3.4,1.44l-36.5,60.88a4.18,4.18,0,0,0,.95,5.26,3,3,0,0,0,4.6-.83L497.89,281l7.53,41.86h0l1.62,9L500.85,333a3.81,3.81,0,0,0,1.34,7.44l9.44-1.7,9.86-1.77a3.81,3.81,0,0,0-1.34-7.44l-6.62,1.19-1.35-7.49,23.35-38.95,40.06,32.05a3,3,0,0,0,4.6-.83A4.18,4.18,0,0,0,579.25,310.21Z"/><path class="cls-1" d="M504.25,263l-20.43,3.67c-2.56.46-5.07-1.54-5.6-4.48s1.12-5.69,3.69-6.15l20.43-3.67c2.56-.46,5.07,1.54,5.6,4.48S506.82,262.58,504.25,263Z"/><path class="cls-1" d="M574.28,273.12l-22,4a3.81,3.81,0,0,1-1.34-7.44l22-4a3.81,3.81,0,0,1,1.34,7.44Z"/><path class="cls-1" d="M238.32,752.91h-6l-16.45-25.36a15.59,15.59,0,0,1-1.33-2.42h-.13a40.7,40.7,0,0,1,.2,5v22.76h-5.17V718.52h6.31l16,24.87q1.13,1.78,1.51,2.46h.11a36,36,0,0,1-.24-4.93v-22.4h5.2Z"/><path class="cls-1" d="M282.15,751.56a21.22,21.22,0,0,1-9.61,1.93q-7.46,0-12-4.69t-4.5-12.4a18.37,18.37,0,0,1,5-13.24,17,17,0,0,1,12.84-5.21,21.41,21.41,0,0,1,8.24,1.38v5.4a16.18,16.18,0,0,0-8.06-2,11.65,11.65,0,0,0-9,3.7,13.73,13.73,0,0,0-3.4,9.67,13.27,13.27,0,0,0,3.18,9.24,10.94,10.94,0,0,0,8.54,3.53,16.57,16.57,0,0,0,8.75-2.29Z"/><path class="cls-1" d="M325.71,752.91h-7.08l-12.12-15.45a6.33,6.33,0,0,1-.91-1.44h-.11v16.9h-5.33V718.52h5.33v16.21h.11a9.43,9.43,0,0,1,.93-1.44l11.66-14.77h6.48L310.9,735Z"/><path class="cls-1" d="M367.39,738.66q0,14.83-13.57,14.83-13,0-13-14.34V718.52h5.33V739q0,9.79,8.08,9.79,7.84,0,7.84-9.46V718.52h5.33Z"/><path class="cls-1" d="M407.19,752.91V718.52h10.75a12.31,12.31,0,0,1,7.67,2.15,6.92,6.92,0,0,1,2.81,5.8,7.81,7.81,0,0,1-1.71,5,9,9,0,0,1-4.51,3v.09a8.94,8.94,0,0,1,5.65,2.64A7.9,7.9,0,0,1,430,742.9a9.1,9.1,0,0,1-3.21,7.25,12.52,12.52,0,0,1-8.47,2.77Zm5.33-30V733h3.86a7,7,0,0,0,4.73-1.47,5,5,0,0,0,1.69-4q0-4.57-6.26-4.57Zm0,14.45v11.19h5A7.66,7.66,0,0,0,422.6,747a5.18,5.18,0,0,0,1.8-4.2q0-5.48-7.39-5.48Z"/><path class="cls-1" d="M456.37,722.87h-3.2v25.69h3.2v4.35h-11.7v-4.35h3.18V722.87h-3.18v-4.35h11.7Z"/><path class="cls-1" d="M498.73,752.91h-7.08l-12.12-15.45a6.33,6.33,0,0,1-.91-1.44h-.11v16.9h-5.33V718.52h5.33v16.21h.11a9.43,9.43,0,0,1,.93-1.44l11.66-14.77h6.48L483.92,735Z"/><path class="cls-1" d="M533.28,752.91H514.23V718.52H532.5v4.57H519.56v10.12h12v4.55h-12v10.57h13.72Z"/><path class="cls-1" d="M591.91,723.09h-13v10.68h12v4.55h-12v14.59h-5.33V718.52h18.3Z"/><path class="cls-1" d="M628.56,752.91H609.51V718.52h18.27v4.57H614.84v10.12h12v4.55h-12v10.57h13.72Z"/><path class="cls-1" d="M644.59,745.78a14.27,14.27,0,0,0,9.3,3.22q6.84,0,6.84-4.68a4.18,4.18,0,0,0-.75-2.44,7,7,0,0,0-2-1.9,56.68,56.68,0,0,0-5-2.61,18.7,18.7,0,0,1-6.48-4.51,8.31,8.31,0,0,1-1.84-5.37,8.19,8.19,0,0,1,3.51-7,14.86,14.86,0,0,1,9-2.55,18.77,18.77,0,0,1,7.82,1.27v5.46a13.59,13.59,0,0,0-7.93-2.2,8.83,8.83,0,0,0-4.91,1.22,3.81,3.81,0,0,0-1.87,3.35,4.09,4.09,0,0,0,1.37,3.18,26.65,26.65,0,0,0,5.76,3.33q5.13,2.4,7.08,4.81a8.54,8.54,0,0,1,2,5.54A8.28,8.28,0,0,1,663,751q-3.37,2.46-9.35,2.46a25.31,25.31,0,0,1-4.88-.53,12.74,12.74,0,0,1-4.13-1.42Z"/><path class="cls-1" d="M705.81,723.09h-9.88v29.82h-5.35V723.09h-9.86v-4.57h25.09Z"/><path class="cls-1" d="M730.81,722.87h-3.2v25.69h3.2v4.35h-11.7v-4.35h3.18V722.87h-3.18v-4.35h11.7Z"/><path class="cls-1" d="M774.24,718.52l-12.41,34.39h-6l-12.21-34.39h5.84l8.7,26.09a15.36,15.36,0,0,1,.69,3.2H759a14.58,14.58,0,0,1,.78-3.24l8.81-26Z"/><path class="cls-1" d="M818.16,752.91H812.3L809.08,744H795.31l-3.06,8.95h-5.86l13-34.39h5.93Zm-10.57-13.37L802.79,726a14.81,14.81,0,0,1-.53-2.6h-.16a13,13,0,0,1-.56,2.55l-4.77,13.61Z"/><path class="cls-1" d="M853.08,752.91H834.32V718.52h5.33v29.82h13.43Z"/></svg>