<svg id="圖層_1" data-name="圖層 1" xmlns="http://www.w3.org/2000/svg" viewBox="0 0 222 516.34"><defs><style>.cls-1{fill:#942323;}.cls-2{fill:#133180;}.cls-3{fill:#1e556d;}.cls-4{fill:none;stroke:#942323;stroke-miterlimit:10;}</style></defs><title>網站</title><path class="cls-1" d="M92.86,138c.19-6.41,6.31-11.46,13.66-11.25s13.16,5.61,13,12c-.14,4.78-3.54,8.92-8.67,10.56a1.36,1.36,0,0,1-1.66-.67,1.08,1.08,0,0,1,.76-1.44c4.14-1.32,6.88-4.66,7-8.51.15-5.17-4.54-9.52-10.47-9.69s-10.86,3.9-11,9.07c-.11,3.93,2.62,7.56,6.81,9a1.09,1.09,0,0,1,.73,1.47,1.35,1.35,0,0,1-1.67.62C96.11,147.35,92.72,142.85,92.86,138Z"/><path class="cls-2" d="M109.4,168.32a1,1,0,0,1,.15-.5,1.38,1.38,0,0,1,1.74-.45l.33.16a1.06,1.06,0,0,1,.48,1.54,1.39,1.39,0,0,1-1.76.41l-.26-.13A1.12,1.12,0,0,1,109.4,168.32Z"/><path class="cls-1" d="M91.72,177.22c.19-6.41,6.31-11.46,13.66-11.25a14.77,14.77,0,0,1,5.92,1.4,1.06,1.06,0,0,1,.53,1.53,1.38,1.38,0,0,1-1.74.45,11.92,11.92,0,0,0-4.77-1.13c-5.92-.17-10.86,3.9-11,9.07s4.54,9.52,10.47,9.69a11.91,11.91,0,0,0,4.83-.85,1.38,1.38,0,0,1,1.71.55,1.06,1.06,0,0,1-.62,1.49,14.77,14.77,0,0,1-6,1.05C97.35,189,91.53,183.63,91.72,177.22Z"/><path class="cls-3" d="M105.39,178.71l13.51-11.12,4.76,4.41a1.42,1.42,0,0,0,1.82.05,1,1,0,0,0,0-1.59l-16.13-14.94,14.5.42a1.3,1.3,0,0,0,1.21-.66,1,1,0,0,0-.24-1.23L107.11,137.6a1.42,1.42,0,0,0-1.82-.05,1,1,0,0,0,0,1.59l15.62,14.47-14.5-.42h0l-3.13-.09.06-2.14a1.3,1.3,0,0,0-2.58-.07l-.1,3.27-.1,3.42a1.3,1.3,0,0,0,2.58.07l.07-2.29,2.6.08,11.36,10.52-13.51,11.12a1,1,0,0,0,0,1.59A1.42,1.42,0,0,0,105.39,178.71Z"/><path class="cls-1" d="M126.4,157l.21-7.08a1.86,1.86,0,0,1,3.68.11l-.21,7.08a1.86,1.86,0,0,1-3.68-.11Z"/><path class="cls-3" d="M118.12,179.65l.22-7.61a1.3,1.3,0,0,1,2.58.08l-.22,7.61a1.3,1.3,0,0,1-2.58-.08Z"/><path class="cls-1" d="M100.24,206.43a6,6,0,0,0-1.15,2.2,8.69,8.69,0,0,0-.46,2.65q0,4,2.88,4a2.59,2.59,0,0,0,1.44-.41,3.8,3.8,0,0,0,1.1-1.11q.46-.7,1.52-2.75a10.8,10.8,0,0,1,2.64-3.74,4.34,4.34,0,0,1,2.54-.79,4.14,4.14,0,0,1,3.5,1.78,7.34,7.34,0,0,1,1.31,4.48,8.35,8.35,0,0,1-.64,3.86h-2.31a7.08,7.08,0,0,0,1.1-4.11,5,5,0,0,0-.73-2.81,2.34,2.34,0,0,0-2.06-1.09,2.61,2.61,0,0,0-1.42.38,3.58,3.58,0,0,0-1,1,26.28,26.28,0,0,0-1.39,2.55,11.85,11.85,0,0,1-2.58,3.74,4.48,4.48,0,0,1-6.4-.62,7.73,7.73,0,0,1-1.27-4.72,12.52,12.52,0,0,1,.3-2.41,5.7,5.7,0,0,1,.74-2.08Z"/><path class="cls-1" d="M97.88,235.3a10.47,10.47,0,0,1-1.08-5,8,8,0,0,1,2.52-6.16,9.2,9.2,0,0,1,6.52-2.34,9.84,9.84,0,0,1,7,2.57,8.68,8.68,0,0,1,2.77,6.67,10.54,10.54,0,0,1-.75,4.27h-2.16a8.79,8.79,0,0,0,1.08-4.31,6.55,6.55,0,0,0-2.18-5.16,8.14,8.14,0,0,0-5.6-1.93,7.72,7.72,0,0,0-5.3,1.8,6.12,6.12,0,0,0-2.05,4.84,9,9,0,0,0,1.22,4.76Z"/><path class="cls-1" d="M97.1,253.88v-2.39l5.11-3a6.52,6.52,0,0,0,2.15-1.77,3.38,3.38,0,0,0,.51-1.86V243H97.1v-2h18.15v5.34a5.85,5.85,0,0,1-1.28,4,4.45,4.45,0,0,1-3.54,1.48q-3.76,0-4.89-4h0a3.64,3.64,0,0,1-.86,1.24,16,16,0,0,1-2.09,1.46ZM113.4,243h-6.68v3a3.81,3.81,0,0,0,1,2.7,3.34,3.34,0,0,0,2.57,1,2.91,2.91,0,0,0,2.31-.95,4.08,4.08,0,0,0,.83-2.77Z"/><path class="cls-1" d="M106,257a10,10,0,0,1,7,2.37,8.24,8.24,0,0,1,2.61,6.42,7.72,7.72,0,0,1-2.55,6,9.49,9.49,0,0,1-6.59,2.29,10.2,10.2,0,0,1-7-2.31,8.79,8.79,0,0,1-.07-12.48A9.45,9.45,0,0,1,106,257Zm.19,2.1a8.31,8.31,0,0,0-5.41,1.73,5.67,5.67,0,0,0-2.14,4.64,6,6,0,0,0,2,4.83,8.17,8.17,0,0,0,5.49,1.73,8.53,8.53,0,0,0,5.6-1.67,5.8,5.8,0,0,0,2-4.73,5.86,5.86,0,0,0-2.15-4.76A8.23,8.23,0,0,0,106.15,259.08Z"/><path class="cls-1" d="M97.1,289v-9.33h18.15v2H98.93V289Z"/><path class="cls-1" d="M97.1,303.17v-9.33h18.15v2H98.93v7.34Z"/><polyline class="cls-4" points="100.52 320.63 100.52 379.63 109.39 371.94"/></svg>