<svg id="圖層_1" data-name="圖層 1" xmlns="http://www.w3.org/2000/svg" viewBox="0 0 390.53 253.18"><defs><style>.cls-1{fill:#942323;stroke:#942323;stroke-miterlimit:10;}.cls-2{fill:#1e556d;}</style></defs><title>網站</title><path class="cls-1" d="M226.3,192.67a31.07,31.07,0,0,1-31-31V106.81a31,31,0,0,1,61.91-3.16,3.41,3.41,0,0,1-6.79.69,24.21,24.21,0,0,0-48.3,2.47v54.82a24.24,24.24,0,0,0,24.21,24.21,3.41,3.41,0,0,1,0,6.82Z"/><path class="cls-1" d="M227.79,193a32.56,32.56,0,0,1-32.53-32.53,3.41,3.41,0,0,1,6.82,0,25.69,25.69,0,1,0,12.73-22.19,3.41,3.41,0,1,1-3.45-5.89A32.53,32.53,0,1,1,227.79,193Z"/><circle class="cls-2" cx="227.82" cy="160.5" r="14.26"/></svg>