<svg id="圖層_1" data-name="圖層 1" xmlns="http://www.w3.org/2000/svg" viewBox="0 0 390.53 253.18"><defs><style>.cls-1{fill:#942323;fill-rule:evenodd;}</style></defs><title>網站</title><path class="cls-1" d="M189,125.34V142l5-6,7.77,0L189,125.34Zm-2.18-4.67,20.92,17.56-12.76,0L186.87,148V120.68Zm1.09-3.43a5.77,5.77,0,0,1,5.76,5.76,1,1,0,0,1,0,.13v0l-2.18-.06V123a3.58,3.58,0,1,0-5.81,2.81l-1.35,1.7A5.76,5.76,0,0,1,188,117.25Zm0-3.63a9.38,9.38,0,0,1,8.84,12.53l-2-.73a7.21,7.21,0,1,0-9.32,4.35l-.76,2A9.39,9.39,0,0,1,188,113.62Z"/></svg>